<?xml version="1.0" encoding="UTF-8"?>
<svg version="1.1" xmlns="http://www.w3.org/2000/svg" width="1248" height="832">
<path d="M0 0 C411.84 0 823.68 0 1248 0 C1248 274.56 1248 549.12 1248 832 C836.16 832 424.32 832 0 832 C0 557.44 0 282.88 0 0 Z " fill="#FDFDFD" transform="translate(0,0)"/>
<path d="M0 0 C1.13308594 -0.01417969 2.26617188 -0.02835938 3.43359375 -0.04296875 C6.41707979 0.17678865 8.05545423 0.62906614 10.5625 2.1875 C10.5625 2.8475 10.5625 3.5075 10.5625 4.1875 C11.16578125 4.29964844 11.7690625 4.41179687 12.390625 4.52734375 C13.18984375 4.72457031 13.9890625 4.92179688 14.8125 5.125 C15.99585938 5.38603516 15.99585938 5.38603516 17.203125 5.65234375 C21.08827429 8.18026374 22.32688611 11.82152789 23.5625 16.1875 C24.03790698 20.69924664 23.88334574 25.19567195 23.69921875 29.72265625 C23.6115561 34.67685554 23.6115561 34.67685554 26.04101562 38.76367188 C28.15247149 40.1239163 30.26926722 41.16377749 32.5625 42.1875 C34.15526283 42.98636752 35.74635769 43.78856755 37.3359375 44.59375 C38.17866211 45.00625 39.02138672 45.41875 39.88964844 45.84375 C44.74990117 48.28719456 49.45965135 50.99923778 54.1875 53.6875 C55.17234375 54.24308594 56.1571875 54.79867187 57.171875 55.37109375 C59.97863323 56.96159008 62.78128781 58.55266559 65.5625 60.1875 C66.59006157 60.58162079 66.59006157 60.58162079 67.63838196 60.98370361 C70.17591072 62.13076901 71.71562336 63.08637941 73.5625 65.1875 C74.65153419 69.33227758 74.77448079 73.38981703 74.81471062 77.66399384 C74.84022928 79.82959202 74.92187613 81.98649135 75.01966858 84.14996338 C75.28969458 90.2932891 75.47839516 96.43659875 75.58325195 102.58496094 C75.09518146 118.80036043 75.09518146 118.80036043 80.24563599 133.41409302 C84.22623591 136.67824115 88.4934858 138.13164593 93.40734863 139.44177246 C104.99572273 143.45159276 114.99903952 155.99960854 120.4375 166.375 C125.59392526 177.55593559 125.85811558 187.30065326 121.96875 198.96875 C119.63072708 204.32022467 116.24746071 208.69645414 112.5625 213.1875 C111.94117188 214.01636719 111.31984375 214.84523438 110.6796875 215.69921875 C101.78489146 226.15306576 86.96369748 235.3775715 73.5625 238.1875 C71.73842855 238.93053676 69.92705233 239.70504863 68.125 240.5 C28.99726229 257.03903128 -22.09345456 255.89317443 -61.4375 240.1875 C-81.98795523 231.45519794 -102.15936757 219.27821928 -111.36328125 197.9453125 C-114.40199342 187.31534485 -113.84072138 175.65639238 -108.93359375 165.703125 C-106.69932689 161.94628987 -104.24297506 158.53397577 -101.4375 155.1875 C-100.695 154.1975 -99.9525 153.2075 -99.1875 152.1875 C-98.61 151.5275 -98.0325 150.8675 -97.4375 150.1875 C-96.7775 150.1875 -96.1175 150.1875 -95.4375 150.1875 C-95.4375 149.5275 -95.4375 148.8675 -95.4375 148.1875 C-93.7830812 146.82746177 -92.06153955 145.54848795 -90.3125 144.3125 C-89.30960938 143.60351562 -88.30671875 142.89453125 -87.2734375 142.1640625 C-86.33757813 141.51179687 -85.40171875 140.85953125 -84.4375 140.1875 C-83.46683594 139.48753906 -83.46683594 139.48753906 -82.4765625 138.7734375 C-79.86416327 136.93017104 -78.72171177 136.1875 -75.4375 136.1875 C-75.39882813 135.36572266 -75.39882813 135.36572266 -75.359375 134.52734375 C-74.87466746 127.75245433 -73.28497549 121.46507433 -71.46875 114.94140625 C-70.30319968 110.69862647 -69.31593448 106.43564407 -68.34765625 102.14453125 C-67.12037067 96.74998084 -65.79997728 91.37737903 -64.5 86 C-62.71143205 78.59897259 -60.97797013 71.1933714 -59.375 63.75 C-57.93858567 57.10012771 -56.18321479 50.5826498 -54.30371094 44.0456543 C-51.89517457 35.52494184 -50.16019624 26.86834919 -48.4375 18.1875 C-43.76424845 18.1875 -41.61390953 19.25992637 -37.4375 21.1875 C-37.4375 21.8475 -37.4375 22.5075 -37.4375 23.1875 C-35.4575 23.6825 -35.4575 23.6825 -33.4375 24.1875 C-33.4375 24.8475 -33.4375 25.5075 -33.4375 26.1875 C-30.7975 26.5175 -28.1575 26.8475 -25.4375 27.1875 C-25.4375 27.8475 -25.4375 28.5075 -25.4375 29.1875 C-24.4475 29.1875 -23.4575 29.1875 -22.4375 29.1875 C-22.51528722 26.77831455 -22.51528722 26.77831455 -23.4375 24.1875 C-25.88262775 22.42367033 -25.88262775 22.42367033 -28.875 21.125 C-34.15964735 18.63770184 -34.15964735 18.63770184 -35.78515625 16.00390625 C-36.00042969 15.40449219 -36.21570313 14.80507812 -36.4375 14.1875 C-30.89415962 10.09024841 -30.89415962 10.09024841 -26.74609375 10.3671875 C-24.27235957 10.88093599 -21.85849009 11.4665613 -19.4375 12.1875 C-19.2725 11.48625 -19.1075 10.785 -18.9375 10.0625 C-15.06071194 2.63198956 -7.96012228 0.04517663 0 0 Z " fill="#B56560" transform="translate(609.4375,220.8125)"/>
<path d="M0 0 C2.475 0.99 2.475 0.99 5 2 C5.75764648 2.27835693 6.51529297 2.55671387 7.29589844 2.84350586 C19.54433183 7.45670328 19.54433183 7.45670328 24 12 C25.48431783 16.06697749 25.16345018 20.02655333 24.91381836 24.28833008 C24.54319517 29.3202583 24.54319517 29.3202583 27.078125 33.5234375 C30.9144296 35.77041591 34.68553946 37.01441228 39 38 C39 38.66 39 39.32 39 40 C40.65 40.33 42.3 40.66 44 41 C44 41.66 44 42.32 44 43 C44.886875 43.268125 45.77375 43.53625 46.6875 43.8125 C49.76877548 44.91710819 52.26221405 46.22849144 55 48 C54.69175213 50.67148153 54.35702313 53.33478085 54 56 C53.88914062 56.84820312 53.77828125 57.69640625 53.6640625 58.5703125 C52.60616219 65.73609005 50.83198724 72.57573544 48.76464844 79.50537109 C47.72160746 83.06737979 46.87353544 86.47711979 46.47265625 90.171875 C46.03102649 93.74871107 45.16238155 96.60972049 44 100 C43.2665197 103.39671236 42.71673731 106.82695787 42.14453125 110.25390625 C41.20093644 115.62123585 41.20093644 115.62123585 40.05957031 117.77270508 C38.60252014 120.83553197 37.97054806 124.01934824 37.265625 127.31640625 C37.10692932 128.03761154 36.94823364 128.75881683 36.784729 129.50187683 C36.26822131 131.85436915 35.75910499 134.20839567 35.25 136.5625 C34.89571865 138.18208357 34.54089712 139.80154906 34.18554688 141.42089844 C33.46705021 144.69757115 32.75109752 147.97478344 32.03710938 151.25244141 C30.54599933 158.08969691 29.02251918 164.91968004 27.5 171.75 C27.01025278 173.95308857 26.52065164 176.15620963 26.03125 178.359375 C25.6875 179.90625 25.34375 181.453125 25 183 C31.07883501 181.5338245 31.07883501 181.5338245 35.9296875 177.87109375 C37.37689684 173.9889811 38.28415925 170.11510165 39.125 166.0625 C39.54855852 164.11279705 39.97454453 162.16362061 40.40234375 160.21484375 C40.64581543 159.10222168 40.88928711 157.98959961 41.14013672 156.84326172 C42.72119982 149.7765112 44.40388615 142.73355929 46.07830811 135.68844604 C46.67921829 133.159849 47.27848366 130.63086679 47.87744141 128.10180664 C48.25543955 126.50795289 48.63352823 124.91412061 49.01171875 123.3203125 C49.18240372 122.60013443 49.35308868 121.87995636 49.52894592 121.13795471 C50.35248359 117.6750424 51.19381271 114.21805311 52.06616211 110.76708984 C52.75670234 107.98145959 53.39538481 105.22360126 53.9296875 102.40625 C54.08300537 101.61226807 54.23632324 100.81828613 54.39428711 100.00024414 C54.55292236 99.17516357 54.71155762 98.35008301 54.875 97.5 C56.47950084 89.32432865 58.36658597 81.27801267 60.43945312 73.20751953 C61.55532045 68.81306292 62.62364548 64.40728744 63.6875 60 C63.90204834 59.12738525 64.11659668 58.25477051 64.33764648 57.35571289 C65.56754618 52.24119587 66.4489082 47.23234412 67 42 C64.03 41.01 61.06 40.02 58 39 C58 38.34 58 37.68 58 37 C57.18144531 36.76410156 56.36289062 36.52820313 55.51953125 36.28515625 C51.29283905 34.7417803 47.57727222 32.67792386 43.6875 30.4375 C42.95982422 30.02564453 42.23214844 29.61378906 41.48242188 29.18945312 C36.15697714 26.15697714 36.15697714 26.15697714 35 25 C34.95919217 23.00041636 34.95745644 20.99954746 35 19 C39.48103096 20.62318655 43.45086428 22.87767564 47.5625 25.25 C52.52116979 28.08198175 57.49322393 30.80120533 62.625 33.3125 C73.27057033 38.54114067 73.27057033 38.54114067 75 42 C75.18769005 43.39316707 75.32191582 44.79369654 75.4296875 46.1953125 C75.5371228 47.57626099 75.5371228 47.57626099 75.64672852 48.98510742 C75.72205811 50.02127197 75.7973877 51.05743652 75.875 52.125 C75.95741943 53.21852783 76.03983887 54.31205566 76.12475586 55.4387207 C76.72820282 63.67563521 77.25208986 71.91695199 77.76171875 80.16015625 C77.82772278 81.22687561 77.89372681 82.29359497 77.96173096 83.39263916 C78.29551088 88.80522898 78.6243945 94.21806705 78.94677734 99.63134766 C79.0699675 101.6643892 79.19317635 103.69742961 79.31640625 105.73046875 C79.39757942 107.12761864 79.39757942 107.12761864 79.48039246 108.55299377 C79.77761621 113.41799802 80.26726272 118.17705758 81 123 C81.41960132 127.22394064 81.73584046 131.45544412 82.0625 135.6875 C82.15337891 136.79544922 82.24425781 137.90339844 82.33789062 139.04492188 C82.90799466 146.37911735 83.11238893 153.64476863 83 161 C82.13048706 161.15819214 82.13048706 161.15819214 81.2434082 161.31958008 C78.59775729 161.80692987 75.9552293 162.30955844 73.3125 162.8125 C71.94448242 163.0609668 71.94448242 163.0609668 70.54882812 163.31445312 C61.7185736 165.016284 56.39267605 169.13637333 49.4375 174.625 C42.35716913 180.17546081 35.22778077 185.64293896 28 191 C23.62828771 188.59984423 19.88825274 186.1394833 16 183 C12.93065237 180.66884041 9.83881209 178.36778127 6.75 176.0625 C0.17464767 171.14688129 -6.36975843 166.1954676 -12.875 161.1875 C-18.35292875 156.97818417 -23.88778159 152.87569431 -29.5324707 148.89306641 C-35.59995152 144.6049284 -41.56050647 140.17314666 -47.51708984 135.73266602 C-51.25131389 132.96270577 -54.9376259 130.28048767 -59 128 C-58.34179777 121.33074604 -56.86800493 115.04275018 -55.1875 108.5625 C-54.6421255 106.42866719 -54.09786095 104.2945504 -53.5546875 102.16015625 C-53.28881836 101.11617676 -53.02294922 100.07219727 -52.74902344 98.99658203 C-51.39283396 93.57094005 -50.17193493 88.11499532 -48.95703125 82.65625 C-48.24820535 79.94824576 -47.47562623 77.52038282 -46.46875 74.9296875 C-45.14859387 71.52384092 -44.32931859 68.2314092 -43.6875 64.625 C-41.50637228 53.00138799 -38.70886729 41.50946116 -36 30 C-35.7215625 28.81631836 -35.443125 27.63263672 -35.15625 26.41308594 C-34.33730502 22.94110047 -33.51360315 19.47028867 -32.6875 16 C-32.43315186 14.92572754 -32.17880371 13.85145508 -31.91674805 12.74462891 C-31.67996338 11.75640137 -31.44317871 10.76817383 -31.19921875 9.75 C-30.99127686 8.87859375 -30.78333496 8.0071875 -30.5690918 7.109375 C-30 5 -30 5 -29 3 C-27.5410574 3.47730838 -26.08286504 3.95691042 -24.625 4.4375 C-23.40683594 4.83775391 -23.40683594 4.83775391 -22.1640625 5.24609375 C-20 6 -20 6 -18 7 C-18 7.66 -18 8.32 -18 9 C-15.36 9.66 -12.72 10.32 -10 11 C-10 11.66 -10 12.32 -10 13 C-9.278125 13.28875 -8.55625 13.5775 -7.8125 13.875 C-5.20833333 14.91666667 -2.60416667 15.95833333 0 17 C0 11.39 0 5.78 0 0 Z " fill="#FDF0ED" transform="translate(598,252)"/>
<path d="M0 0 C1.13308594 -0.01417969 2.26617188 -0.02835938 3.43359375 -0.04296875 C6.41707979 0.17678865 8.05545423 0.62906614 10.5625 2.1875 C10.5625 2.8475 10.5625 3.5075 10.5625 4.1875 C11.16578125 4.29964844 11.7690625 4.41179687 12.390625 4.52734375 C13.18984375 4.72457031 13.9890625 4.92179688 14.8125 5.125 C15.99585938 5.38603516 15.99585938 5.38603516 17.203125 5.65234375 C21.08827429 8.18026374 22.32688611 11.82152789 23.5625 16.1875 C24.03790698 20.69924664 23.88334574 25.19567195 23.69921875 29.72265625 C23.6115561 34.67685554 23.6115561 34.67685554 26.04101562 38.76367188 C28.15247149 40.1239163 30.26926722 41.16377749 32.5625 42.1875 C34.15526283 42.98636752 35.74635769 43.78856755 37.3359375 44.59375 C38.60002441 45.2125 38.60002441 45.2125 39.88964844 45.84375 C44.74990117 48.28719456 49.45965135 50.99923778 54.1875 53.6875 C55.17234375 54.24308594 56.1571875 54.79867187 57.171875 55.37109375 C59.97863323 56.96159008 62.78128781 58.55266559 65.5625 60.1875 C66.2430545 60.44779999 66.92360901 60.70809998 67.62478638 60.97628784 C70.16637358 62.12403355 71.70480362 63.08996607 73.5625 65.1875 C74.75437897 69.37701281 74.99921401 73.504512 75.1509285 77.84738541 C75.22755546 80.03617577 75.35058671 82.21809553 75.48544312 84.40402222 C75.76226813 89.03841889 75.97616945 93.67473551 76.1875 98.3125 C76.44124827 103.69496323 76.72065778 109.0747923 77.04383469 114.45354843 C77.16260338 116.60636425 77.24510708 118.758577 77.32559204 120.91311646 C77.39942108 122.21812103 77.47325012 123.52312561 77.54931641 124.86767578 C77.60068756 126.01841583 77.65205872 127.16915588 77.70498657 128.35476685 C78.31693743 131.50258946 78.31693743 131.50258946 81.62582397 133.08248901 C82.59492706 133.44714264 83.56403015 133.81179626 84.5625 134.1875 C82.5625 136.1875 82.5625 136.1875 79.5625 138.1875 C79.8925 139.1775 80.2225 140.1675 80.5625 141.1875 C80.60820421 142.94211318 80.60076461 144.69833381 80.5625 146.453125 C80.50190887 153.65048542 81.02291551 160.76403917 81.5625 167.9375 C82.30927065 178.38076087 82.86352951 188.71836245 82.5625 199.1875 C79.37199839 200.70231799 76.31477545 201.4653003 72.859375 202.0546875 C59.87545633 204.34063839 50.90212108 208.12318518 40.71142578 216.44042969 C38.38929798 218.32831273 36.02703371 220.15530195 33.65234375 221.9765625 C29.87937674 224.874644 26.13020634 227.80036402 22.39916992 230.75219727 C21.79306885 231.22584717 21.18696777 231.69949707 20.5625 232.1875 C19.90805908 232.76363037 19.25361816 233.33976074 18.5793457 233.93334961 C16.5625 235.1875 16.5625 235.1875 14.50024414 235.0144043 C11.2404557 233.62333671 8.69297149 231.25620595 6 229 C0.16358514 224.21902221 -5.78411578 219.63969485 -11.875 215.1875 C-12.67784424 214.60033203 -13.48068848 214.01316406 -14.30786133 213.40820312 C-15.91265976 212.23472561 -17.51755756 211.06138398 -19.12255859 209.88818359 C-22.66468998 207.28593858 -26.1767276 204.64431515 -29.6875 202 C-34.98327308 198.01887936 -40.29152875 194.05551359 -45.625 190.125 C-46.23698242 189.67165283 -46.84896484 189.21830566 -47.47949219 188.7512207 C-50.71107842 186.37709524 -54.00182869 184.24779807 -57.4375 182.1875 C-59.34917047 180.79227799 -61.24409064 179.3739221 -63.125 177.9375 C-67.79670086 174.3962354 -72.53118823 170.99080554 -77.37890625 167.6953125 C-81.02084949 165.02777912 -81.02084949 165.02777912 -82.4375 163.1875 C-83.02691718 156.55014998 -80.66334636 149.44325348 -79.05859375 143.0703125 C-78.29709033 140.02728054 -78.29709033 140.02728054 -78.4375 136.1875 C-77.4475 136.1875 -76.4575 136.1875 -75.4375 136.1875 C-75.41171875 135.63964844 -75.3859375 135.09179688 -75.359375 134.52734375 C-74.87466746 127.75245433 -73.28497549 121.46507433 -71.46875 114.94140625 C-70.30319968 110.69862647 -69.31593448 106.43564407 -68.34765625 102.14453125 C-67.12037067 96.74998084 -65.79997728 91.37737903 -64.5 86 C-62.71143205 78.59897259 -60.97797013 71.1933714 -59.375 63.75 C-57.93858567 57.10012771 -56.18321479 50.5826498 -54.30371094 44.0456543 C-51.89517457 35.52494184 -50.16019624 26.86834919 -48.4375 18.1875 C-43.76424845 18.1875 -41.61390953 19.25992637 -37.4375 21.1875 C-37.4375 21.8475 -37.4375 22.5075 -37.4375 23.1875 C-36.1175 23.5175 -34.7975 23.8475 -33.4375 24.1875 C-33.4375 24.8475 -33.4375 25.5075 -33.4375 26.1875 C-30.7975 26.5175 -28.1575 26.8475 -25.4375 27.1875 C-25.4375 27.8475 -25.4375 28.5075 -25.4375 29.1875 C-24.4475 29.1875 -23.4575 29.1875 -22.4375 29.1875 C-22.51528722 26.77831455 -22.51528722 26.77831455 -23.4375 24.1875 C-25.88262775 22.42367033 -25.88262775 22.42367033 -28.875 21.125 C-34.15964735 18.63770184 -34.15964735 18.63770184 -35.78515625 16.00390625 C-36.00042969 15.40449219 -36.21570313 14.80507812 -36.4375 14.1875 C-30.89415962 10.09024841 -30.89415962 10.09024841 -26.74609375 10.3671875 C-24.27235957 10.88093599 -21.85849009 11.4665613 -19.4375 12.1875 C-19.2725 11.48625 -19.1075 10.785 -18.9375 10.0625 C-15.06071194 2.63198956 -7.96012228 0.04517663 0 0 Z M-11.4375 31.1875 C-11.4375 36.7975 -11.4375 42.4075 -11.4375 48.1875 C-13.45572917 47.14583333 -15.47395833 46.10416667 -17.4921875 45.0625 C-19.38598977 44.05076254 -19.38598977 44.05076254 -21.4375 44.1875 C-21.4375 43.5275 -21.4375 42.8675 -21.4375 42.1875 C-24.0775 41.5275 -26.7175 40.8675 -29.4375 40.1875 C-29.4375 39.5275 -29.4375 38.8675 -29.4375 38.1875 C-30.8937545 37.51630451 -32.35257867 36.85068193 -33.8125 36.1875 C-34.62460937 35.81625 -35.43671875 35.445 -36.2734375 35.0625 C-38.35748433 34.06254987 -38.35748433 34.06254987 -40.4375 34.1875 C-40.74880859 35.45013672 -40.74880859 35.45013672 -41.06640625 36.73828125 C-41.37449219 37.97964844 -41.68257812 39.22101563 -42 40.5 C-42.17345947 41.2000415 -42.34691895 41.90008301 -42.52563477 42.62133789 C-43.67286926 47.21951601 -44.86247851 51.80430104 -46.0859375 56.3828125 C-49.37740351 68.75810608 -52.41024245 81.09122881 -54.66381836 93.70288086 C-55.55374014 98.5079715 -56.63882398 102.9649112 -58.39453125 107.53125 C-60.40581138 112.783238 -61.56832731 118.03294488 -62.67822266 123.53808594 C-64.21868827 130.94222743 -66.20274334 138.24594606 -68.09570312 145.56640625 C-68.39798828 146.75363281 -68.70027344 147.94085938 -69.01171875 149.1640625 C-69.28588623 150.22705566 -69.56005371 151.29004883 -69.8425293 152.38525391 C-70.5759597 155.36217791 -70.5759597 155.36217791 -70.4375 159.1875 C-68.76597316 160.76784319 -68.76597316 160.76784319 -66.4921875 162.03125 C-63.26473413 164.04257978 -60.12842548 166.08177457 -57.0703125 168.34375 C-56.33981689 168.88402832 -55.60932129 169.42430664 -54.85668945 169.98095703 C-54.09960693 170.54411621 -53.34252441 171.10727539 -52.5625 171.6875 C-50.89198794 172.92456136 -49.22141322 174.16153809 -47.55078125 175.3984375 C-46.70467285 176.02588867 -45.85856445 176.65333984 -44.98681641 177.29980469 C-41.70904399 179.72690067 -38.42280513 182.14237339 -35.13647461 184.55786133 C-25.29753827 191.79187007 -15.51794903 199.10242716 -5.76269531 206.44873047 C1.29685552 211.76387794 8.39941682 217.01259542 15.5625 222.1875 C20.25706017 219.12329871 24.76814732 215.86637414 29.25 212.5 C29.95552002 211.97543213 30.66104004 211.45086426 31.38793945 210.91040039 C34.55287284 208.53931406 37.66049144 206.16257179 40.59375 203.5078125 C47.25806995 197.52952549 52.76745506 195.53058568 61.5625 194.1875 C63.50161912 193.79967618 65.43931881 193.40463392 67.375 193 C68.77053379 192.7276274 70.16631523 192.45651577 71.5625 192.1875 C71.67694807 184.03171246 71.36512047 176.00138872 70.6875 167.875 C70.60886719 166.88177734 70.53023437 165.88855469 70.44921875 164.86523438 C70.03200335 159.66287928 69.59005926 154.46390444 69.11181641 149.2668457 C68.11434708 138.3170274 67.29265124 127.37011229 66.6328125 116.39453125 C66.47541598 113.84439144 66.31786304 111.29426127 66.16015625 108.74414062 C65.91866466 104.83192728 65.68124487 100.91969686 65.46337891 97.00610352 C65.24519137 93.15516454 65.00367146 89.30628927 64.7578125 85.45703125 C64.69723663 84.28114944 64.63666077 83.10526764 64.57424927 81.89375305 C64.50092377 80.80708847 64.42759827 79.72042389 64.35205078 78.60083008 C64.26783371 77.17266716 64.26783371 77.17266716 64.18191528 75.71565247 C63.16013752 71.54525168 60.43531679 69.76324361 56.96875 67.4765625 C50.89224101 63.99727106 44.76083961 60.74731447 38.46875 57.67578125 C34.69285326 55.74215671 31.10938265 53.55203759 27.5234375 51.2890625 C25.64674192 50.02424453 25.64674192 50.02424453 23.5625 50.1875 C22.72310731 52.9267959 22.72310731 52.9267959 23.5625 56.1875 C26.60181207 58.70412783 30.06816583 60.3824797 33.5625 62.1875 C35.56270568 63.31213426 37.56271169 64.43712375 39.5625 65.5625 C42.88158246 67.5632138 42.88158246 67.5632138 46.5625 68.1875 C46.5625 68.8475 46.5625 69.5075 46.5625 70.1875 C49.5325 71.1775 52.5025 72.1675 55.5625 73.1875 C54.24027991 81.87842801 52.48561565 90.44173692 50.53076172 99.0078125 C50.05859007 101.07965638 49.59343641 103.15299344 49.12890625 105.2265625 C48.82593376 106.56519769 48.52256277 107.90374277 48.21875 109.2421875 C47.94869141 110.43312012 47.67863281 111.62405273 47.40039062 112.85107422 C46.601976 116.03030914 45.61070536 119.08368072 44.5625 122.1875 C44.06789325 124.6387928 43.61238527 127.09816546 43.1875 129.5625 C42.11805042 135.5152251 40.83178273 141.36126263 39.3203125 147.22045898 C37.498042 154.32949129 35.84734336 161.47656596 34.1875 168.625 C33.73467651 170.55182617 33.73467651 170.55182617 33.27270508 172.51757812 C31.78586856 178.84759978 30.33946892 185.18216475 28.98828125 191.54296875 C28.73675293 192.68644775 28.48522461 193.82992676 28.22607422 195.00805664 C27.75367912 197.15797851 27.29984971 199.31209228 26.86767578 201.47045898 C25.82619229 206.11662823 25.28229884 208.53135684 21.69140625 211.8046875 C18.89630914 213.03997386 16.54337766 213.65252736 13.5625 214.1875 C16.85849885 199.16318927 20.22454104 184.15455129 23.65628052 169.16067505 C24.04950176 167.43990011 24.44118536 165.71877301 24.83126831 163.99728394 C28.45562543 148.01581638 28.45562543 148.01581638 30.97485352 140.98681641 C31.91603184 138.10501986 32.29855195 135.18593591 32.6875 132.1875 C33.4665 126.2835 33.4665 126.2835 34.5625 125.1875 C35.05729756 122.71053149 35.50966694 120.23859964 35.9375 117.75 C36.76030794 113.14146491 37.60912868 108.64705514 39.0625 104.1875 C40.48234553 99.78522761 41.39587142 95.35158332 42.25 90.8125 C42.44722656 89.77609375 42.44722656 89.77609375 42.6484375 88.71875 C43.24303967 85.45802841 43.5625 82.51772449 43.5625 79.1875 C42.10712432 78.34901196 40.64809627 77.51686066 39.1875 76.6875 C38.37539063 76.2234375 37.56328125 75.759375 36.7265625 75.28125 C34.66913126 74.03714141 34.66913126 74.03714141 32.5625 74.1875 C32.2325 73.1975 31.9025 72.2075 31.5625 71.1875 C30.2425 71.1875 28.9225 71.1875 27.5625 71.1875 C27.5625 70.5275 27.5625 69.8675 27.5625 69.1875 C26.551875 68.775 25.54125 68.3625 24.5 67.9375 C23.17021266 67.39472966 21.86104373 66.80127375 20.5625 66.1875 C19.96074951 65.96126953 19.35899902 65.73503906 18.73901367 65.50195312 C16.66199003 64.58449483 15.17093423 63.79848505 13.5625 62.1875 C13.08394571 59.15420207 13.64698613 56.2217594 14 53.1875 C14.17234711 49.54244576 14.0142614 46.56357602 12.5625 43.1875 C7.16087793 37.9962828 -3.70412311 31.1875 -11.4375 31.1875 Z " fill="#984533" transform="translate(609.4375,220.8125)"/>
<path d="M0 0 C4.48103096 1.62318655 8.45086428 3.87767564 12.5625 6.25 C17.52116979 9.08198175 22.49322393 11.80120533 27.625 14.3125 C38.27057033 19.54114067 38.27057033 19.54114067 40 23 C40.18769005 24.39316707 40.32191582 25.79369654 40.4296875 27.1953125 C40.5371228 28.57626099 40.5371228 28.57626099 40.64672852 29.98510742 C40.72205811 31.02127197 40.7973877 32.05743652 40.875 33.125 C40.99862915 34.76529175 40.99862915 34.76529175 41.12475586 36.4387207 C41.72820282 44.67563521 42.25208986 52.91695199 42.76171875 61.16015625 C42.82772278 62.22687561 42.89372681 63.29359497 42.96173096 64.39263916 C43.29551088 69.80522898 43.6243945 75.21806705 43.94677734 80.63134766 C44.0699675 82.6643892 44.19317635 84.69742961 44.31640625 86.73046875 C44.3705217 87.66190201 44.42463715 88.59333527 44.48039246 89.55299377 C44.77761621 94.41799802 45.26726272 99.17705758 46 104 C46.41960132 108.22394064 46.73584046 112.45544412 47.0625 116.6875 C47.15337891 117.79544922 47.24425781 118.90339844 47.33789062 120.04492188 C47.90799466 127.37911735 48.11238893 134.64476863 48 142 C47.13048706 142.15819214 47.13048706 142.15819214 46.2434082 142.31958008 C43.59775729 142.80692987 40.9552293 143.30955844 38.3125 143.8125 C36.94448242 144.0609668 36.94448242 144.0609668 35.54882812 144.31445312 C26.65099087 146.02930903 21.26777064 150.22437993 14.25 155.75 C9.640625 159.359375 9.640625 159.359375 7.33789062 161.15429688 C5.71737976 162.43364756 4.11282475 163.73337024 2.52148438 165.04882812 C1.32749023 166.02239258 1.32749023 166.02239258 0.109375 167.015625 C-0.60766602 167.61149414 -1.32470703 168.20736328 -2.06347656 168.82128906 C-2.7025293 169.21026367 -3.34158203 169.59923828 -4 170 C-4.99 169.67 -5.98 169.34 -7 169 C-5.515 167.02 -5.515 167.02 -4 165 C-4.33 164.34 -4.66 163.68 -5 163 C-4.05761475 162.49178711 -3.11522949 161.98357422 -2.14428711 161.45996094 C1.6067937 158.52526956 2.37574256 156.10180152 3.30859375 151.640625 C3.48100082 150.91130264 3.6534079 150.18198029 3.83103943 149.43055725 C4.38958086 147.0416984 4.91362354 144.64667685 5.4375 142.25 C5.81912947 140.58832594 6.20277915 138.92711465 6.58837891 137.26635742 C7.75947613 132.18489453 8.88394379 127.0937918 10 122 C10.34610013 120.42852807 10.6922889 118.85707566 11.03857422 117.28564453 C12.89696252 108.83919423 12.89696252 108.83919423 14.70483398 100.38183594 C16.02251475 94.17954323 17.48847669 88.12277525 19.38378906 82.07202148 C20.1410121 79.52584402 20.58379628 77.00591984 20.9375 74.375 C21.99063328 67.58142712 23.70207642 60.98771003 25.40722656 54.33642578 C26.53309653 49.8987917 27.61347603 45.4504209 28.6875 41 C29.00908081 39.69204468 29.00908081 39.69204468 29.3371582 38.35766602 C30.56725481 33.24248568 31.44883578 28.23303168 32 23 C29.03 22.01 26.06 21.02 23 20 C23 19.34 23 18.68 23 18 C22.18144531 17.76410156 21.36289062 17.52820313 20.51953125 17.28515625 C16.29283905 15.7417803 12.57727222 13.67792386 8.6875 11.4375 C7.59598633 10.8197168 7.59598633 10.8197168 6.48242188 10.18945312 C1.15697714 7.15697714 1.15697714 7.15697714 0 6 C-0.04080783 4.00041636 -0.04254356 1.99954746 0 0 Z " fill="#F9EEEB" transform="translate(633,271)"/>
<path d="M0 0 C14 0 14 0 17.33349609 2.63037109 C18.48300171 4.37020874 18.48300171 4.37020874 19.5234375 6.2734375 C20.12631088 7.23185043 20.12631088 7.23185043 20.74136353 8.20962524 C22.00186897 10.23910369 23.18664743 12.30262906 24.375 14.375 C25.22203404 15.75799207 26.07356421 17.13824101 26.9296875 18.515625 C33 28.41121873 33 28.41121873 33 31 C33.66 31 34.32 31 35 31 C35 20.77 35 10.54 35 0 C39.29 0 43.58 0 48 0 C48 17.49 48 34.98 48 53 C43.38 53 38.76 53 34 53 C33.319375 51.72125 32.63875 50.4425 31.9375 49.125 C29.4850786 44.70509928 26.71211818 40.6134992 23.78125 36.5 C22.01304957 34.01831519 20.2750675 31.52038236 18.5625 29 C18.06878906 28.278125 17.57507813 27.55625 17.06640625 26.8125 C16 25 16 25 16 23 C15.34 23 14.68 23 14 23 C14 32.9 14 42.8 14 53 C9.38 53 4.76 53 0 53 C0 35.51 0 18.02 0 0 Z " fill="#632821" transform="translate(451,508)"/>
<path d="M0 0 C30.34693878 0 30.34693878 0 38.5625 7.0625 C41.51314821 10.91404641 41.85926554 14.50536548 41.58984375 19.26953125 C40.6336377 23.69594203 38.52309791 27.14178174 35 30 C32.29296875 30.7109375 32.29296875 30.7109375 30 31 C30.45890625 31.7734375 30.9178125 32.546875 31.390625 33.34375 C41 49.65546218 41 49.65546218 41 53 C36.05 53 31.1 53 26 53 C25.31292969 51.64003906 24.62585938 50.28007813 23.91796875 48.87890625 C23.00832504 47.10650769 22.09814074 45.3343865 21.1875 43.5625 C20.73568359 42.66466797 20.28386719 41.76683594 19.81835938 40.84179688 C19.37685547 39.98779297 18.93535156 39.13378906 18.48046875 38.25390625 C18.07723389 37.46314697 17.67399902 36.6723877 17.25854492 35.85766602 C16.05917046 33.68192351 16.05917046 33.68192351 13 33 C13 39.6 13 46.2 13 53 C8.71 53 4.42 53 0 53 C0 35.51 0 18.02 0 0 Z " fill="#642520" transform="translate(625,508)"/>
<path d="M0 0 C4.69673117 2.59508104 7.84489478 4.77344654 10.625 9.375 C11.00808562 11.36606919 11.34880539 13.36631196 11.625 15.375 C9.35475032 15.45597324 7.08367925 15.51417704 4.8125 15.5625 C2.91564453 15.61470703 2.91564453 15.61470703 0.98046875 15.66796875 C-2.375 15.375 -2.375 15.375 -4.13671875 13.92578125 C-4.54535156 13.41402344 -4.95398438 12.90226563 -5.375 12.375 C-9.43171355 11.02276215 -13.13334954 10.83081637 -17.375 11.375 C-20.84368763 13.44145221 -23.18391972 15.47691909 -24.375 19.375 C-24.91360252 25.94595071 -24.17764151 31.01183019 -19.8125 36.25 C-16.84177388 38.57491609 -14.63961943 38.50983299 -10.9375 38.5 C-9.96941406 38.50257813 -9.00132812 38.50515625 -8.00390625 38.5078125 C-5.26482171 38.48713973 -5.26482171 38.48713973 -2.375 37.375 C-2.045 36.385 -1.715 35.395 -1.375 34.375 C-0.385 34.375 0.605 34.375 1.625 34.375 C1.625 33.055 1.625 31.735 1.625 30.375 C-3.325 30.375 -8.275 30.375 -13.375 30.375 C-13.375 27.405 -13.375 24.435 -13.375 21.375 C-4.795 21.375 3.785 21.375 12.625 21.375 C13.5625 36.24107143 13.5625 36.24107143 9.625 41.5 C4.39033088 47.12753475 -1.351123 50.9315029 -9.07421875 51.61328125 C-17.56561689 51.82417872 -23.02925488 50.14047417 -30.125 45.625 C-37.19566548 38.55433452 -38.67912141 31.87798953 -38.68969727 22.09179688 C-38.53157028 14.37445157 -36.17039713 10.11906376 -31.0625 4.5625 C-22.44157576 -3.57639407 -10.55792411 -4.99837446 0 0 Z " fill="#60201B" transform="translate(602.375,509.625)"/>
<path d="M0 0 C0.68578125 -0.03738281 1.3715625 -0.07476562 2.078125 -0.11328125 C4.0859375 -0.1484375 4.0859375 -0.1484375 7.625 0.375 C10.45594513 3.63505681 11.39602652 7.45230803 12.5625 11.5625 C13.67839183 15.48019817 14.94701341 19.24535444 16.48828125 23.01171875 C18.89257448 28.91885219 20.88763295 34.9422108 22.875 41 C23.23851562 42.09957031 23.60203125 43.19914063 23.9765625 44.33203125 C24.86215202 47.0121048 25.7439717 49.69342356 26.625 52.375 C22.005 52.375 17.385 52.375 12.625 52.375 C11.965 49.405 11.305 46.435 10.625 43.375 C0.725 43.87 0.725 43.87 -9.375 44.375 C-10.365 47.345 -11.355 50.315 -12.375 53.375 C-16.665 53.375 -20.955 53.375 -25.375 53.375 C-24.06104267 44.96567311 -21.28180019 37.38099706 -18.20263672 29.49804688 C-16.84178079 26.00719049 -15.51068186 22.50528588 -14.1875 19 C-13.93621338 18.33589111 -13.68492676 17.67178223 -13.42602539 16.98754883 C-11.71275103 12.40984917 -10.21573517 7.80894162 -8.91796875 3.09765625 C-7.62192427 -1.01425467 -3.66245978 0.07488301 0 0 Z " fill="#61231C" transform="translate(813.375,507.625)"/>
<path d="M0 0 C4.29 0 8.58 0 13 0 C13 6.6 13 13.2 13 20 C19.27 20 25.54 20 32 20 C32 13.4 32 6.8 32 0 C36.29 0 40.58 0 45 0 C45 17.49 45 34.98 45 53 C40.71 53 36.42 53 32 53 C32 45.74 32 38.48 32 31 C25.73 31 19.46 31 13 31 C13 37.93 13 44.86 13 52 C8.71 52 4.42 52 0 52 C0 34.84 0 17.68 0 0 Z " fill="#642821" transform="translate(734,508)"/>
<path d="M0 0 C4.95 0 9.9 0 15 0 C17 5 17 5 17 8 C17.66 8 18.32 8 19 8 C19.17015625 8.60585938 19.3403125 9.21171875 19.515625 9.8359375 C21.0192475 15.0346323 22.76205086 20.01546503 24.82421875 25.015625 C26.64545634 29.63830114 28.26230669 34.33126363 29.89379883 39.02368164 C30.13767334 39.72356201 30.38154785 40.42344238 30.6328125 41.14453125 C30.86516602 41.81178223 31.09751953 42.4790332 31.33691406 43.16650391 C31.90475759 44.73664562 32.53614597 46.28355475 33.1796875 47.82421875 C34 50 34 50 34 53 C29.38 53 24.76 53 20 53 C19.01 49.7 18.02 46.4 17 43 C10.73 43.33 4.46 43.66 -2 44 C-2.99 46.64 -3.98 49.28 -5 52 C-9.29 52 -13.58 52 -18 52 C-16.80878547 46.69368074 -15.26199322 41.5393564 -13.5625 36.375 C-13.15128906 35.12460937 -12.74007813 33.87421875 -12.31640625 32.5859375 C-11 29 -11 29 -9.49609375 26.03515625 C-7.73421366 22.46079378 -6.61859466 18.87654694 -5.5 15.0625 C-3.96741147 9.86653051 -2.21862311 4.94675561 0 0 Z " fill="#60241E" transform="translate(410,508)"/>
<path d="M0 0 C5.28 0 10.56 0 16 0 C19.58481087 7.65203249 22.35023951 15.50415467 25.0625 23.5 C25.50028328 24.78007375 25.93843236 26.06002246 26.37695312 27.33984375 C28.61381401 33.88359811 30.82371423 40.43587698 33 47 C33.66 48.98 34.32 50.96 35 53 C30.38 53 25.76 53 21 53 C20.01 50.03 19.02 47.06 18 44 C11.4 43.67 4.8 43.34 -2 43 C-2.66 45.97 -3.32 48.94 -4 52 C-8.29 52 -12.58 52 -17 52 C-15.87302752 45.23816514 -15.87302752 45.23816514 -14.73046875 41.79296875 C-14.48103516 41.04080078 -14.23160156 40.28863281 -13.97460938 39.51367188 C-13.71486328 38.74603516 -13.45511719 37.97839844 -13.1875 37.1875 C-12.8152832 36.05344727 -12.8152832 36.05344727 -12.43554688 34.89648438 C-11.13584861 31.01723229 -9.71137036 27.27355579 -8.00390625 23.5546875 C-5.83827117 18.7989964 -4.26872313 13.93146457 -2.75 8.9375 C-2.481875 8.07189453 -2.21375 7.20628906 -1.9375 6.31445312 C-1.286754 4.21114908 -0.64266173 2.10578826 0 0 Z " fill="#62231D" transform="translate(691,508)"/>
<path d="M0 0 C4.62 0 9.24 0 14 0 C14.0093457 1.03930664 14.01869141 2.07861328 14.02832031 3.14941406 C14.06824123 7.01133838 14.13400478 10.8724678 14.20751953 14.73388672 C14.23571718 16.40403011 14.25693779 18.07430665 14.27099609 19.74462891 C14.29244337 22.14815372 14.33909845 24.55007983 14.390625 26.953125 C14.39185364 27.69806213 14.39308228 28.44299927 14.39434814 29.21051025 C14.49291981 32.71186858 14.73781537 34.65769402 16.89501953 37.47412109 C19.36591083 39.26524503 20.60485774 39.48610891 23.625 39.375 C24.78902344 39.35566406 24.78902344 39.35566406 25.9765625 39.3359375 C28.22331046 39.16452129 28.22331046 39.16452129 30 37 C30.24569272 34.20783209 30.37363138 31.50759395 30.4140625 28.7109375 C30.43342865 27.89251373 30.4527948 27.07408997 30.4727478 26.23086548 C30.53261082 23.61235024 30.57895532 20.99379119 30.625 18.375 C30.66317364 16.60154314 30.70222501 14.82810495 30.7421875 13.0546875 C30.83831771 8.70327625 30.92232351 4.35177821 31 0 C35.62 0 40.24 0 45 0 C45.09945752 5.12282759 45.17174409 10.24508354 45.21972656 15.36865234 C45.23974522 17.10866089 45.26696886 18.84860299 45.30175781 20.58837891 C45.35070952 23.10075346 45.37306587 25.61223275 45.390625 28.125 C45.41127014 28.89303955 45.43191528 29.6610791 45.45318604 30.45239258 C45.45604532 37.45725811 43.10482765 42.44007448 38.6875 47.8125 C32.4113399 52.92100241 27.12896867 53.55808413 19.16015625 53.34765625 C13.2577484 52.69831843 9.12849078 50.54262978 5.1875 46.125 C0.87784494 39.96834992 -0.43936524 35.67955687 -0.29296875 28.3203125 C-0.28872391 27.50754852 -0.28447906 26.69478455 -0.28010559 25.85739136 C-0.26340804 23.27958041 -0.22577362 20.7025718 -0.1875 18.125 C-0.17244158 16.36980301 -0.1587552 14.61459369 -0.14648438 12.859375 C-0.11353392 8.57261087 -0.06181453 4.28644114 0 0 Z " fill="#672B25" transform="translate(510,508)"/>
<path d="M0 0 C0.33 0 0.66 0 1 0 C1.10406012 6.32536881 0.70812363 12.51563518 0.125 18.8125 C0.00705078 20.19405273 0.00705078 20.19405273 -0.11328125 21.60351562 C-0.52627736 26.14329592 -1.07924604 30.55500156 -2.00390625 35.01953125 C-3.56791385 43.21233412 -3.69157914 51.56120076 -4.0625 59.875 C-4.1785492 62.38899712 -4.2967579 64.902845 -4.41929626 67.41653442 C-4.49461213 68.96897555 -4.56608391 70.52160961 -4.6330719 72.07443237 C-4.81119205 75.82113824 -5.25011097 79.33330628 -6 83 C-6.18863884 85.43512433 -6.3396657 87.87328997 -6.46484375 90.3125 C-6.54333579 91.73178657 -6.62212075 93.15105696 -6.70117188 94.5703125 C-6.8208325 96.78857971 -6.9378476 99.00690359 -7.04956055 101.22558594 C-7.15957431 103.38004206 -7.28024965 105.53369928 -7.40234375 107.6875 C-7.46929443 108.97011719 -7.53624512 110.25273437 -7.60522461 111.57421875 C-8.10375886 115.90039844 -8.73502811 118.89344963 -12.05859375 121.80078125 C-12.84363281 122.29964844 -13.62867188 122.79851562 -14.4375 123.3125 C-15.21996094 123.82425781 -16.00242187 124.33601563 -16.80859375 124.86328125 C-19 126 -19 126 -22 126 C-22.020625 126.5775 -22.04125 127.155 -22.0625 127.75 C-23.5584464 131.34027135 -26.63576569 132.18232062 -30 134 C-28.22576668 123.55692496 -25.92756974 113.29866154 -23.41040039 103.01171875 C-21.15882057 93.77532112 -19.08848965 84.50457049 -17.0925293 75.2097168 C-15.83330348 69.42626305 -14.38263931 63.78555783 -12.62719727 58.13354492 C-11.8721359 55.56504307 -11.41901226 53.02681028 -11.0625 50.375 C-10.00955855 43.58266457 -8.29795966 36.99074692 -6.59277344 30.34082031 C-5.46357602 25.8816997 -4.38660894 21.4101537 -3.3125 16.9375 C-3.09811279 16.05715088 -2.88372559 15.17680176 -2.6628418 14.26977539 C-1.52561068 9.52261799 -0.59827726 4.84538835 0 0 Z " fill="#E0C0B9" transform="translate(665,295)"/>
<path d="M0 0 C0.68578125 -0.03738281 1.3715625 -0.07476562 2.078125 -0.11328125 C4.0859375 -0.1484375 4.0859375 -0.1484375 7.625 0.375 C10.45594513 3.63505681 11.39602652 7.45230803 12.5625 11.5625 C14.06649094 16.69239158 15.83513069 21.55860541 17.98828125 26.44921875 C18.625 28.375 18.625 28.375 17.625 30.375 C17.295 29.385 16.965 28.395 16.625 27.375 C15.635 27.705 14.645 28.035 13.625 28.375 C13.955 25.735 14.285 23.095 14.625 20.375 C12.975 20.705 11.325 21.035 9.625 21.375 C9.625 22.365 9.625 23.355 9.625 24.375 C8.965 24.375 8.305 24.375 7.625 24.375 C7.295 27.675 6.965 30.975 6.625 34.375 C2.665 34.375 -1.295 34.375 -5.375 34.375 C-5.86328125 31.34765625 -6.3515625 28.3203125 -6.83984375 25.29296875 C-7.31371921 22.32566644 -7.31371921 22.32566644 -8.375 19.375 C-8.50281786 16.70105036 -8.41891871 14.05404143 -8.375 11.375 C-9.035 11.045 -9.695 10.715 -10.375 10.375 C-10.06701674 8.89488629 -9.753482 7.41592675 -9.4375 5.9375 C-9.26347656 5.11378906 -9.08945312 4.29007812 -8.91015625 3.44140625 C-7.7489684 -1.04230449 -3.93677717 0.08049173 0 0 Z " fill="#652A25" transform="translate(813.375,507.625)"/>
<path d="M0 0 C1.32 0 2.64 0 4 0 C4 0.99 4 1.98 4 3 C4.66 3 5.32 3 6 3 C7.98 7.95 9.96 12.9 12 18 C14.57026257 15.42973743 15.25360085 12.97109768 16.5 9.5625 C17.79465193 6.02983697 18.90921352 3.13617972 21 0 C22.65 0 24.3 0 26 0 C26 8.25 26 16.5 26 25 C24.68 25 23.36 25 22 25 C22 20.05 22 15.1 22 10 C21.34 10 20.68 10 20 10 C19.70996094 10.88751953 19.70996094 10.88751953 19.4140625 11.79296875 C18.87784323 13.42020842 18.33461409 15.0451514 17.78515625 16.66796875 C17.18917143 18.43813261 16.61961812 20.21722201 16.0625 22 C15.711875 22.66 15.36125 23.32 15 24 C12.93359375 24.625 12.93359375 24.625 11 25 C10.37379084 23.60470871 9.74909369 22.20873879 9.125 20.8125 C8.77695312 20.03519531 8.42890625 19.25789062 8.0703125 18.45703125 C6.99676801 15.99258058 5.99834448 13.49586121 5 11 C4.67 15.62 4.34 20.24 4 25 C2.68 25 1.36 25 0 25 C0 16.75 0 8.5 0 0 Z " fill="#C18C86" transform="translate(616,583)"/>
<path d="M0 0 C12 0 12 0 15.1875 1.625 C17.46251315 4.60605171 18.15371119 6.23407593 18 10 C15.5625 12.875 15.5625 12.875 13 15 C13.28875 15.721875 13.5775 16.44375 13.875 17.1875 C14.91666667 19.79166667 15.95833333 22.39583333 17 25 C14.75 24.9375 14.75 24.9375 12 24 C10.81564184 22.25980587 9.94464668 20.51607179 9.08984375 18.59375 C7.92429152 16.51080552 7.92429152 16.51080552 4 16 C4 18.97 4 21.94 4 25 C2.68 25 1.36 25 0 25 C0 16.75 0 8.5 0 0 Z " fill="#C8918A" transform="translate(697,583)"/>
<path d="M0 0 C4.62 0 9.24 0 14 0 C14.33 0.99 14.66 1.98 15 3 C15.66 3 16.32 3 17 3 C17.22893297 6.03336186 17.36475845 8.97465051 17 12 C15 14.0625 15 14.0625 13 15 C13.28875 15.721875 13.5775 16.44375 13.875 17.1875 C14.91666667 19.79166667 15.95833333 22.39583333 17 25 C15.68 25 14.36 25 13 25 C11.40234375 23.06640625 11.40234375 23.06640625 9.9375 20.5625 C7.84825969 16.7629593 7.84825969 16.7629593 4 15 C4 18.3 4 21.6 4 25 C2.68 25 1.36 25 0 25 C0 16.75 0 8.5 0 0 Z " fill="#CC968F" transform="translate(557,583)"/>
<path d="M0 0 C10.64453125 -0.390625 10.64453125 -0.390625 14 0 C16.70930569 2.53309068 16.97031611 3.76252884 17.4375 7.5 C17 11 17 11 15.5625 13.4375 C11.66904791 15.81155615 8.51138518 15.2653756 4 15 C4 18.3 4 21.6 4 25 C2.68 25 1.36 25 0 25 C0 16.75 0 8.5 0 0 Z " fill="#CD948E" transform="translate(491,583)"/>
<path d="M0 0 C1.65 0 3.3 0 5 0 C5.9605272 2.37413326 6.91847353 4.74925519 7.875 7.125 C8.14441406 7.79015625 8.41382813 8.4553125 8.69140625 9.140625 C13 19.85956555 13 19.85956555 13 25 C11.68 25 10.36 25 9 25 C8.67 23.68 8.34 22.36 8 21 C4.37 20.67 0.74 20.34 -3 20 C-3.33 21.65 -3.66 23.3 -4 25 C-5.32 25 -6.64 25 -8 25 C-6.43889635 16.25781959 -3.21518143 8.24016625 0 0 Z " fill="#C2857F" transform="translate(667,583)"/>
<path d="M0 0 C3.11142907 2.81510249 3.85043097 4.26978413 4.625 8.375 C4.76289592 11.38408606 4.7453698 14.36575499 4.625 17.375 C-0.40092433 16.79128044 -4.28984367 14.49907618 -8.625 12.0625 C-9.3571875 11.67126953 -10.089375 11.28003906 -10.84375 10.87695312 C-11.53984375 10.48830078 -12.2359375 10.09964844 -12.953125 9.69921875 C-13.58637695 9.34947998 -14.21962891 8.99974121 -14.87207031 8.6394043 C-16.77612389 7.03753726 -17.00246932 5.78977439 -17.375 3.375 C-16.715 3.375 -16.055 3.375 -15.375 3.375 C-15.271875 2.735625 -15.16875 2.09625 -15.0625 1.4375 C-14.835625 0.756875 -14.60875 0.07625 -14.375 -0.625 C-9.06130362 -2.39623213 -4.97742518 -2.39653805 0 0 Z " fill="#F9F6F4" transform="translate(617.375,233.625)"/>
<path d="M0 0 C1.32 0 2.64 0 4 0 C4.02505615 0.57032959 4.0501123 1.14065918 4.07592773 1.72827148 C4.19156549 4.29826157 4.31443624 6.86785527 4.4375 9.4375 C4.47681641 10.33533203 4.51613281 11.23316406 4.55664062 12.15820312 C4.59853516 13.01220703 4.64042969 13.86621094 4.68359375 14.74609375 C4.72025146 15.53685303 4.75690918 16.3276123 4.79467773 17.14233398 C4.80563257 19.01401441 4.80563257 19.01401441 6 20 C9.5 20.16666667 9.5 20.16666667 13 20 C14.54950268 18.45049732 14.21655193 16.90009406 14.31640625 14.74609375 C14.35830078 13.89208984 14.40019531 13.03808594 14.44335938 12.15820312 C14.48267578 11.26037109 14.52199219 10.36253906 14.5625 9.4375 C14.60568359 8.53580078 14.64886719 7.63410156 14.69335938 6.70507812 C14.79978142 4.47021515 14.90179988 2.23523692 15 0 C16.32 0 17.64 0 19 0 C19.08115993 3.06303578 19.14057409 6.12390815 19.1875 9.1875 C19.21263672 10.05181641 19.23777344 10.91613281 19.26367188 11.80664062 C19.32022752 16.72698209 19.19276261 19.98693063 16 24 C14.44014791 25.55985209 12.91093902 25.24452344 10.75 25.3125 C7.2073069 25.28429384 6.11909696 25.0744356 3 23.125 C0.20030168 20.15032053 -0.12414217 18.62132607 -0.09765625 14.6484375 C-0.09443359 13.79765625 -0.09121094 12.946875 -0.08789062 12.0703125 C-0.07951172 11.18085937 -0.07113281 10.29140625 -0.0625 9.375 C-0.05798828 8.4778125 -0.05347656 7.580625 -0.04882812 6.65625 C-0.03702591 4.43743352 -0.02056155 2.21874982 0 0 Z " fill="#C68B86" transform="translate(454,583)"/>
<path d="M0 0 C1.13308594 -0.02578125 2.26617188 -0.0515625 3.43359375 -0.078125 C6.80392471 0.27531795 8.1223938 0.97176817 10.5625 3.25 C7.9225 3.25 5.2825 3.25 2.5625 3.25 C2.5625 2.59 2.5625 1.93 2.5625 1.25 C-4.30914081 1.95118784 -9.93422384 3.26552798 -14.6875 8.5 C-19.13226132 14.18073773 -20.8502049 19.08193333 -20.25 26.234375 C-20.4375 28.25 -20.4375 28.25 -21.9375 30.015625 C-22.4325 30.42296875 -22.9275 30.8303125 -23.4375 31.25 C-25.90550047 30.09826645 -27.48533565 29.20216435 -29.4375 27.25 C-28.1175 27.25 -26.7975 27.25 -25.4375 27.25 C-25.4375 27.91 -25.4375 28.57 -25.4375 29.25 C-24.4475 29.25 -23.4575 29.25 -22.4375 29.25 C-22.51528722 26.84081455 -22.51528722 26.84081455 -23.4375 24.25 C-25.88262775 22.48617033 -25.88262775 22.48617033 -28.875 21.1875 C-34.15964735 18.70020184 -34.15964735 18.70020184 -35.78515625 16.06640625 C-36.00042969 15.46699219 -36.21570313 14.86757812 -36.4375 14.25 C-30.89415962 10.15274841 -30.89415962 10.15274841 -26.74609375 10.4296875 C-24.27235957 10.94343599 -21.85849009 11.5290613 -19.4375 12.25 C-19.2725 11.54875 -19.1075 10.8475 -18.9375 10.125 C-15.06837011 2.70916771 -7.94707645 0.10824622 0 0 Z " fill="#B05B43" transform="translate(609.4375,220.75)"/>
<path d="M0 0 C0.33 0.99 0.66 1.98 1 3 C7.93 3.495 7.93 3.495 15 4 C15 4.33 15 4.66 15 5 C13.80117188 5.15082031 13.80117188 5.15082031 12.578125 5.3046875 C3.43112697 6.87213082 -1.53313572 10.33505634 -8.29150391 16.49853516 C-11.56350076 19.37403968 -15.03098536 21.99369921 -18.5 24.625 C-19.18296143 25.15794678 -19.86592285 25.69089355 -20.56958008 26.23999023 C-21.21693115 26.73055908 -21.86428223 27.22112793 -22.53125 27.7265625 C-23.10423828 28.16564941 -23.67722656 28.60473633 -24.26757812 29.05712891 C-26 30 -26 30 -30 30 C-29.01 28.68 -28.02 27.36 -27 26 C-27.33 25.34 -27.66 24.68 -28 24 C-27.175 23.46375 -26.35 22.9275 -25.5 22.375 C-22.86334756 20.60674383 -20.26084726 18.79680135 -17.6875 16.9375 C-17.01074219 16.45152344 -16.33398438 15.96554687 -15.63671875 15.46484375 C-13.72303813 13.99581072 -13.72303813 13.99581072 -13 11 C-11.29296875 9.90234375 -11.29296875 9.90234375 -9.1875 8.9375 C-8.15689453 8.45603516 -8.15689453 8.45603516 -7.10546875 7.96484375 C-5.6725894 7.30821815 -4.23202746 6.66816001 -2.78515625 6.04296875 C-0.70179509 5.10179355 -0.70179509 5.10179355 -0.25 2.375 C-0.1675 1.59125 -0.085 0.8075 0 0 Z " fill="#F2E6E4" transform="translate(656,410)"/>
<path d="M0 0 C2.9375 1.25 2.9375 1.25 5 3 C5 4.32 5 5.64 5 7 C1.125 6.125 1.125 6.125 0 5 C-1.99958364 4.95919217 -4.00045254 4.95745644 -6 5 C-6 6.32 -6 7.64 -6 9 C-5.30132812 9.26554688 -4.60265625 9.53109375 -3.8828125 9.8046875 C-2.51769531 10.33449219 -2.51769531 10.33449219 -1.125 10.875 C0.23238281 11.39707031 0.23238281 11.39707031 1.6171875 11.9296875 C4 13 4 13 6 15 C6.45409879 18.48142404 6.39476404 20.34778115 4.5625 23.375 C0.79365596 25.76499866 -2.65482868 25.81322472 -7 25 C-9.5625 23.125 -9.5625 23.125 -11 21 C-11 20.34 -11 19.68 -11 19 C-6.125 19.875 -6.125 19.875 -5 21 C-3.33382885 21.04063832 -1.66611905 21.042721 0 21 C0.66 19.35 1.32 17.7 2 16 C1.39671875 15.90203125 0.7934375 15.8040625 0.171875 15.703125 C-3.55656222 15.00554642 -6.40042234 14.40946767 -9.5625 12.25 C-11.49243724 9.22922867 -11.58688021 7.52128126 -11 4 C-8.03927235 -0.50030603 -5.15156092 -0.63264783 0 0 Z " fill="#BF7D7A" transform="translate(430,583)"/>
<path d="M0 0 C4.62 0 9.24 0 14 0 C14 0.99 14 1.98 14 3 C10.7 3 7.4 3 4 3 C4 5.64 4 8.28 4 11 C7.3 11 10.6 11 14 11 C14 11.99 14 12.98 14 14 C10.7 14 7.4 14 4 14 C4 16.64 4 19.28 4 22 C7.3 22 10.6 22 14 22 C14 23.32 14 24.64 14 26 C9.38 26 4.76 26 0 26 C0 17.42 0 8.84 0 0 Z " fill="#CB9691" transform="translate(766,583)"/>
<path d="M0 0 C4.48095643 1.62315956 8.45105884 3.87742855 12.5625 6.25 C18.49464192 9.64233061 24.46200002 12.79448829 30.64453125 15.7109375 C32.87064423 16.92920829 34.33404282 18.10711842 36 20 C33.36 19.67 30.72 19.34 28 19 C28 19.66 28 20.32 28 21 C26.35 20.67 24.7 20.34 23 20 C23 19.34 23 18.68 23 18 C22.18144531 17.76410156 21.36289062 17.52820313 20.51953125 17.28515625 C16.29283905 15.7417803 12.57727222 13.67792386 8.6875 11.4375 C7.95982422 11.02564453 7.23214844 10.61378906 6.48242188 10.18945312 C1.15697714 7.15697714 1.15697714 7.15697714 0 6 C-0.04080783 4.00041636 -0.04254356 1.99954746 0 0 Z " fill="#EFE3DE" transform="translate(633,271)"/>
<path d="M0 0 C4.62 0 9.24 0 14 0 C14 1.32 14 2.64 14 4 C10.7 4 7.4 4 4 4 C4 6.31 4 8.62 4 11 C6.97 11 9.94 11 13 11 C13 11.99 13 12.98 13 14 C10.03 14 7.06 14 4 14 C4 16.64 4 19.28 4 22 C7.3 22 10.6 22 14 22 C14 22.99 14 23.98 14 25 C9.38 25 4.76 25 0 25 C0 16.75 0 8.5 0 0 Z " fill="#C4847C" transform="translate(525,583)"/>
<path d="M0 0 C-1.44753184 3.76358277 -3.8414195 5.8057836 -6.85546875 8.33984375 C-8.24096678 9.99309447 -8.24096678 9.99309447 -7.8984375 12.39453125 C-6.85983722 15.40647207 -5.46870534 17.3043467 -3.4375 19.75 C0 23.92756539 0 23.92756539 0 25 C-2.26953125 25.27734375 -2.26953125 25.27734375 -5 25 C-6.94921875 23.06640625 -6.94921875 23.06640625 -8.6875 20.5625 C-10.86805099 17.23429217 -10.86805099 17.23429217 -14 15 C-14 18.3 -14 21.6 -14 25 C-14.99 25 -15.98 25 -17 25 C-17 17.08 -17 9.16 -17 1 C-16.01 1 -15.02 1 -14 1 C-14 3.97 -14 6.94 -14 10 C-13.278125 9.278125 -12.55625 8.55625 -11.8125 7.8125 C-10.884375 6.884375 -9.95625 5.95625 -9 5 C-8.154375 4.071875 -7.30875 3.14375 -6.4375 2.1875 C-4 0 -4 0 0 0 Z " fill="#BA746C" transform="translate(749,583)"/>
<path d="M0 0 C1.5675 -0.061875 3.135 -0.12375 4.75 -0.1875 C6.07257812 -0.23970703 6.07257812 -0.23970703 7.421875 -0.29296875 C10.5125515 0.05824449 11.81474628 0.80973423 14 3 C14.5 6.5 14.5 6.5 14 10 C11.81474628 12.19026577 10.5125515 12.94175551 7.421875 13.29296875 C6.54015625 13.25816406 5.6584375 13.22335937 4.75 13.1875 C3.1825 13.125625 1.615 13.06375 0 13 C0 8.71 0 4.42 0 0 Z " fill="#F0EDED" transform="translate(638,519)"/>
<path d="M0 0 C0.66 0.33 1.32 0.66 2 1 C2 2.32 2 3.64 2 5 C2.62519531 5.22945312 3.25039063 5.45890625 3.89453125 5.6953125 C6.67664814 7.41929588 6.88531771 8.7497349 7.6875 11.875 C7.91824219 12.73867188 8.14898438 13.60234375 8.38671875 14.4921875 C8.69029297 15.73355469 8.69029297 15.73355469 9 17 C9.33 18.32 9.66 19.64 10 21 C5.38 21 0.76 21 -4 21 C-3.35401634 16.12689995 -2.49028264 11.36868161 -1.4375 6.5625 C-1.03337891 4.70818359 -1.03337891 4.70818359 -0.62109375 2.81640625 C-0.31365234 1.42228516 -0.31365234 1.42228516 0 0 Z " fill="#632721" transform="translate(716,540)"/>
<path d="M0 0 C12 0 12 0 15.1875 1.625 C17.34119266 4.44708004 17.76065097 6.48954758 18 10 C16.68 10.33 15.36 10.66 14 11 C13.5359375 9.5459375 13.5359375 9.5459375 13.0625 8.0625 C12.30476658 5.15934208 12.30476658 5.15934208 11 4 C8.36 3.67 5.72 3.34 3 3 C3 10.26 3 17.52 3 25 C2.01 25 1.02 25 0 25 C0 16.75 0 8.5 0 0 Z " fill="#C58A85" transform="translate(697,583)"/>
<path d="M0 0 C1.65 0 3.3 0 5 0 C6.4606285 2.64738916 7 3.89448334 7 7 C6.34 7 5.68 7 5 7 C5.66 10.3 6.32 13.6 7 17 C4.03 17 1.06 17 -2 17 C-2 15.68 -2 14.36 -2 13 C-2.66 13 -3.32 13 -4 13 C-3.52343588 11.20763933 -3.04366502 9.41613103 -2.5625 7.625 C-2.29566406 6.62726562 -2.02882813 5.62953125 -1.75390625 4.6015625 C-1 2 -1 2 0 0 Z " fill="#C58A84" transform="translate(667,583)"/>
<path d="M0 0 C5.61 0 11.22 0 17 0 C17 0.99 17 1.98 17 3 C14.69 3 12.38 3 10 3 C10 10.26 10 17.52 10 25 C9.01 25 8.02 25 7 25 C7 17.74 7 10.48 7 3 C4.69 3 2.38 3 0 3 C0 2.01 0 1.02 0 0 Z " fill="#BF817A" transform="translate(797,583)"/>
<path d="M0 0 C0.99 0.33 1.98 0.66 3 1 C4.16796875 3.8359375 4.16796875 3.8359375 5.1875 7.375 C5.53167969 8.53773438 5.87585938 9.70046875 6.23046875 10.8984375 C7 14 7 14 7 17 C3.37 17 -0.26 17 -4 17 C-3.35729017 11.0870696 -1.80996216 5.65755469 0 0 Z " fill="#E5DDDC" transform="translate(698,524)"/>
<path d="M0 0 C2.778721 2.37397732 3.69551959 4.44719854 4.6875 7.9375 C5.06455078 9.21947266 5.06455078 9.21947266 5.44921875 10.52734375 C6 13 6 13 6 17 C2.37 17 -1.26 17 -5 17 C-4.35841048 14.35307023 -3.71195217 11.70750071 -3.0625 9.0625 C-2.88009766 8.30775391 -2.69769531 7.55300781 -2.50976562 6.77539062 C-1.11328125 1.11328125 -1.11328125 1.11328125 0 0 Z " fill="#EBE5E5" transform="translate(417,524)"/>
<path d="M0 0 C1.32 0 2.64 0 4 0 C4.02505615 0.63091553 4.0501123 1.26183105 4.07592773 1.91186523 C4.19154137 4.75396825 4.31442316 7.59571083 4.4375 10.4375 C4.47681641 11.43072266 4.51613281 12.42394531 4.55664062 13.44726562 C4.59853516 14.39150391 4.64042969 15.33574219 4.68359375 16.30859375 C4.72025146 17.18314209 4.75690918 18.05769043 4.79467773 18.95874023 C4.78181066 20.9927402 4.78181066 20.9927402 6 22 C8.33297433 22.04092937 10.66705225 22.04241723 13 22 C13 22.99 13 23.98 13 25 C8.86001651 25.32470459 6.66000999 25.4304413 3.125 23.125 C0.97852827 20.97852827 0.05987681 20.03966751 -0.11352539 17.02880859 C-0.10828857 16.24328613 -0.10305176 15.45776367 -0.09765625 14.6484375 C-0.09443359 13.79765625 -0.09121094 12.946875 -0.08789062 12.0703125 C-0.07951172 11.18085937 -0.07113281 10.29140625 -0.0625 9.375 C-0.05798828 8.4778125 -0.05347656 7.580625 -0.04882812 6.65625 C-0.03702591 4.43743352 -0.02056155 2.21874982 0 0 Z " fill="#BF827D" transform="translate(454,583)"/>
<path d="M0 0 C2.56857882 2.25288757 3.61591902 4.12598103 4.625 7.375 C4.86476563 8.12523437 5.10453125 8.87546875 5.3515625 9.6484375 C6.01915089 12.06945081 6.5074798 14.53739902 7 17 C3.37 17 -0.26 17 -4 17 C-3.45018084 10.95198929 -2.09570426 5.69398894 0 0 Z " fill="#EDEAEB" transform="translate(813,524)"/>
<path d="M0 0 C3.42771135 3.9173844 8 9.52151811 8 15 C3.05 15 -1.9 15 -7 15 C-5.68 14.34 -4.36 13.68 -3 13 C-3 12.01 -3 11.02 -3 10 C-3.66 9.67 -4.32 9.34 -5 9 C-3.46395304 5.85808576 -1.94268841 2.91403262 0 0 Z " fill="#662822" transform="translate(658,546)"/>
<path d="M0 0 C1.86108398 0.25708008 1.86108398 0.25708008 4 1 C8.96418377 7.69549254 8.5049614 15.70318668 8.40039062 23.62304688 C8.34823364 29.21565906 8.34823364 29.21565906 11.53515625 33.63671875 C12.75525391 34.31154297 12.75525391 34.31154297 14 35 C13.34 35 12.68 35 12 35 C12.061875 36.11375 12.12375 37.2275 12.1875 38.375 C12.125625 39.57125 12.06375 40.7675 12 42 C11.01 42.66 10.02 43.32 9 44 C7.80767387 46.05003955 7.80767387 46.05003955 7 48 C6.87934121 45.37535036 6.76117954 42.75061825 6.64575195 40.12573242 C6.54820602 37.90831882 6.44776046 35.69103097 6.34448242 33.47387695 C6.0971101 27.83752988 6.01792935 22.31859467 6.3125 16.6875 C6.42776175 10.09098165 3.61156301 5.36360102 0 0 Z " fill="#C77A62" transform="translate(625,227)"/>
<path d="M0 0 C4.14032846 1.54385129 7.93553053 3.51028938 11.8125 5.625 C12.40998047 5.94984375 13.00746094 6.2746875 13.62304688 6.609375 C15.08337135 7.40379151 16.54187491 8.20155376 18 9 C16.02 9.99 16.02 9.99 14 11 C14 11.66 14 12.32 14 13 C8.9021377 11.59808787 3.93510382 9.61207291 0 6 C-0.5 2.6875 -0.5 2.6875 0 0 Z " fill="#EFDEDA" transform="translate(633,271)"/>
<path d="M0 0 C6.72 0.72 6.72 0.72 8 2 C8.26293056 6.03160191 8.29404844 7.55892734 6 11 C3.17809019 11.43413997 1.62012321 11.35140315 -0.875 9.9375 C-2.66310335 6.85798867 -1.74592606 4.35666727 -1 1 C-0.67 0.67 -0.34 0.34 0 0 Z " fill="#C1694A" transform="translate(619,289)"/>
<path d="M0 0 C1 1 1 1 1.1875 3.875 C1 7 1 7 -1 10 C-3.82190981 10.43413997 -5.37987679 10.35140315 -7.875 8.9375 C-9.67936761 5.82997801 -8.81177938 3.37200667 -8 0 C-5.11795733 -1.44102133 -3.08226581 -0.65580124 0 0 Z " fill="#CF7657" transform="translate(594,273)"/>
<path d="M0 0 C1.32 0 2.64 0 4 0 C4.79953138 3.28696233 5.09658936 4.71023192 4 8 C3.85596652 9.33363703 3.75409577 10.67218046 3.68359375 12.01171875 C3.64169922 12.76904297 3.59980469 13.52636719 3.55664062 14.30664062 C3.51732422 15.09232422 3.47800781 15.87800781 3.4375 16.6875 C3.39431641 17.48478516 3.35113281 18.28207031 3.30664062 19.10351562 C3.20072632 21.06881447 3.09987449 23.03438496 3 25 C2.01 25 1.02 25 0 25 C0 16.75 0 8.5 0 0 Z " fill="#C1847D" transform="translate(616,583)"/>
<path d="M0 0 C0.85373365 3.41493459 1.0809485 5.64905965 0 9 C-0.185625 9.7425 -0.37125 10.485 -0.5625 11.25 C-0.706875 11.8275 -0.85125 12.405 -1 13 C-2.65 13.33 -4.3 13.66 -6 14 C-8.56687367 10.1496895 -7.83288724 8.41430237 -7 4 C-6.34 4 -5.68 4 -5 4 C-5 3.01 -5 2.02 -5 1 C-3 0 -3 0 0 0 Z " fill="#52160F" transform="translate(828,528)"/>
<path d="M0 0 C1.8975 -0.061875 3.795 -0.12375 5.75 -0.1875 C7.35101563 -0.23970703 7.35101563 -0.23970703 8.984375 -0.29296875 C12.34489034 0.03350619 13.6928617 0.55975757 16 3 C16.25 6.6875 16.25 6.6875 16 10 C15.01 10.33 14.02 10.66 13 11 C12.690625 9.865625 12.38125 8.73125 12.0625 7.5625 C11.37075469 4.21224901 11.37075469 4.21224901 10 3 C8.65252916 2.76924918 7.29622435 2.58846937 5.9375 2.4375 C4.638125 2.293125 3.33875 2.14875 2 2 C2 5.3 2 8.6 2 12 C1.01 12.495 1.01 12.495 0 13 C0 8.71 0 4.42 0 0 Z " fill="#BC746E" transform="translate(492,584)"/>
<path d="M0 0 C3.375 -0.125 3.375 -0.125 7 0 C9 2 9 2 9.1875 5.0625 C9 8 9 8 8 9 C5.32941149 9.14115161 2.67567762 9.04247107 0 9 C0 6.03 0 3.06 0 0 Z " fill="#F4F2F2" transform="translate(701,586)"/>
<path d="M0 0 C6.15234375 -0.09765625 6.15234375 -0.09765625 8 0 C9 1 9 1 9.125 4 C9 7 9 7 8 8 C5.32941149 8.14115161 2.67567762 8.04247107 0 8 C0 5.36 0 2.72 0 0 Z " fill="#F6F5F5" transform="translate(561,587)"/>
<path d="M0 0 C6.15234375 -0.09765625 6.15234375 -0.09765625 8 0 C9 1 9 1 9.0625 4.0625 C9.041875 5.031875 9.02125 6.00125 9 7 C6.04335481 8.4783226 3.25770263 8.06032783 0 8 C0 5.36 0 2.72 0 0 Z " fill="#F9F8F8" transform="translate(495,587)"/>
<path d="M0 0 C-1.42246395 3.69840628 -3.80988455 5.85632808 -6.6015625 8.5390625 C-8.19613266 10.20489837 -9.17270218 11.84902568 -10 14 C-12.5 13.125 -12.5 13.125 -15 11 C-15.46087248 7.63291991 -15.28526928 4.37885612 -15 1 C-14.67 1 -14.34 1 -14 1 C-14 3.97 -14 6.94 -14 10 C-13.278125 9.278125 -12.55625 8.55625 -11.8125 7.8125 C-10.884375 6.884375 -9.95625 5.95625 -9 5 C-8.154375 4.071875 -7.30875 3.14375 -6.4375 2.1875 C-4 0 -4 0 0 0 Z " fill="#C58781" transform="translate(749,583)"/>
<path d="M0 0 C3.96 0 7.92 0 12 0 C12 0.66 12 1.32 12 2 C8.7 2 5.4 2 2 2 C2.185625 3.60875 2.37125 5.2175 2.5625 6.875 C3.07703524 12.38481486 2.77080003 17.53324899 2 23 C1.34 23 0.68 23 0 23 C0 15.41 0 7.82 0 0 Z " fill="#BB736A" transform="translate(558,584)"/>
<path d="M0 0 C3.63 0 7.26 0 11 0 C11 0.33 11 0.66 11 1 C7.7 1 4.4 1 1 1 C1 3.31 1 5.62 1 8 C3.97 8 6.94 8 10 8 C10 8.99 10 9.98 10 11 C7.03 11 4.06 11 1 11 C1 13.64 1 16.28 1 19 C4.3 19 7.6 19 11 19 C11 19.33 11 19.66 11 20 C7.37 20 3.74 20 0 20 C0 13.4 0 6.8 0 0 Z " fill="#CE9D95" transform="translate(528,586)"/>
<path d="M0 0 C1.32 0.66 2.64 1.32 4 2 C3.01 2 2.02 2 1 2 C1.309375 2.9075 1.61875 3.815 1.9375 4.75 C2.288125 5.8225 2.63875 6.895 3 8 C3.226875 8.639375 3.45375 9.27875 3.6875 9.9375 C4.15975313 13.05437068 3.53358775 15.91704857 3 19 C-2.75 19.125 -2.75 19.125 -5 18 C-5 17.34 -5 16.68 -5 16 C-3.35 16.33 -1.7 16.66 0 17 C0 11.39 0 5.78 0 0 Z " fill="#F1DCD4" transform="translate(598,252)"/>
<path d="M0 0 C1.13308594 -0.02578125 2.26617188 -0.0515625 3.43359375 -0.078125 C6.80392471 0.27531795 8.1223938 0.97176817 10.5625 3.25 C7.9225 3.25 5.2825 3.25 2.5625 3.25 C2.5625 2.59 2.5625 1.93 2.5625 1.25 C-4.44585787 1.96513856 -10.0040166 3.2685898 -14.6875 8.75 C-15.14640625 9.3378125 -15.6053125 9.925625 -16.078125 10.53125 C-17.42793079 12.237901 -18.87289477 13.74061614 -20.4375 15.25 C-20.4375 14.59 -20.4375 13.93 -20.4375 13.25 C-21.0975 12.92 -21.7575 12.59 -22.4375 12.25 C-21.4475 12.25 -20.4575 12.25 -19.4375 12.25 C-19.2725 11.54875 -19.1075 10.8475 -18.9375 10.125 C-15.06837011 2.70916771 -7.94707645 0.10824622 0 0 Z " fill="#E88D6E" transform="translate(609.4375,220.75)"/>
<path d="M0 0 C1.65 0 3.3 0 5 0 C5 8.25 5 16.5 5 25 C3.68 25 2.36 25 1 25 C0.94604522 23.37536158 0.90722805 21.75021459 0.875 20.125 C0.85179687 19.22007812 0.82859375 18.31515625 0.8046875 17.3828125 C1 15 1 15 3 13 C3.46396693 10.10776497 3.46396693 10.10776497 3.625 6.875 C3.69976563 5.77929688 3.77453125 4.68359375 3.8515625 3.5546875 C3.90054688 2.71164062 3.94953125 1.86859375 4 1 C2.68 0.67 1.36 0.34 0 0 Z " fill="#CA9C95" transform="translate(637,583)"/>
<path d="M0 0 C0.99 0.33 1.98 0.66 3 1 C2.98839844 1.58007812 2.97679687 2.16015625 2.96484375 2.7578125 C2.91237826 7.2998246 3.08248937 11.52713569 4 16 C3.01 16.33 2.02 16.66 1 17 C0.67 14.03 0.34 11.06 0 8 C-0.66 8 -1.32 8 -2 8 C-1.125 1.125 -1.125 1.125 0 0 Z " fill="#53150F" transform="translate(803,518)"/>
<path d="M0 0 C1.98 0.495 1.98 0.495 4 1 C4.103125 2.11375 4.20625 3.2275 4.3125 4.375 C4.6528125 6.169375 4.6528125 6.169375 5 8 C5.99 8.66 6.98 9.32 8 10 C8 10.66 8 11.32 8 12 C5.36 12 2.72 12 0 12 C0.020625 11.2575 0.04125 10.515 0.0625 9.75 C0.10899006 7.07691753 0.10899006 7.07691753 -0.5625 4.875 C-1 3 -1 3 0 0 Z " fill="#551710" transform="translate(792,548)"/>
<path d="M0 0 C0 0.99 0 1.98 0 3 C-1.62935241 4.37868281 -3.29749607 5.71274093 -5 7 C-5.33 7.66 -5.66 8.32 -6 9 C-5.34 9 -4.68 9 -4 9 C-4 8.34 -4 7.68 -4 7 C-3.01 7.33 -2.02 7.66 -1 8 C-2.59370671 9.36646148 -4.20032982 10.71787166 -5.8125 12.0625 C-6.70582031 12.81660156 -7.59914063 13.57070313 -8.51953125 14.34765625 C-9.33808594 14.89292969 -10.15664063 15.43820312 -11 16 C-11.99 15.67 -12.98 15.34 -14 15 C-13.01 13.68 -12.02 12.36 -11 11 C-11.33 10.34 -11.66 9.68 -12 9 C-11.13375 8.443125 -10.2675 7.88625 -9.375 7.3125 C-6.04054927 5.09747202 -3.03794244 2.60395067 0 0 Z " fill="#E8DCDC" transform="translate(640,425)"/>
<path d="M0 0 C1.81552978 0.61614355 3.6273653 1.24318228 5.4375 1.875 C6.95150391 2.39707031 6.95150391 2.39707031 8.49609375 2.9296875 C11 4 11 4 12 6 C11.34 6 10.68 6 10 6 C10 7.98 10 9.96 10 12 C9.01 12 8.02 12 7 12 C7.66 10.35 8.32 8.7 9 7 C8.38511719 6.89042969 7.77023437 6.78085937 7.13671875 6.66796875 C6.32847656 6.50941406 5.52023437 6.35085938 4.6875 6.1875 C3.88699219 6.03667969 3.08648437 5.88585937 2.26171875 5.73046875 C-0.23445587 4.92427764 -1.32422106 3.97947998 -3 2 C-2.01 2 -1.02 2 0 2 C0 1.34 0 0.68 0 0 Z " fill="#C78E8A" transform="translate(423,592)"/>
<path d="M0 0 C0.66 0 1.32 0 2 0 C3.19287411 3.87684087 4 6.91621923 4 11 C3.34 11 2.68 11 2 11 C2.33 12.98 2.66 14.96 3 17 C2.01 17.66 1.02 18.32 0 19 C0 12.73 0 6.46 0 0 Z " fill="#541612" transform="translate(425,513)"/>
<path d="M0 0 C2.47378124 2.47378124 3.03138231 4.56174345 4.125 7.875 C4.47820313 8.92429687 4.83140625 9.97359375 5.1953125 11.0546875 C6 14 6 14 6 18 C4.68 18 3.36 18 2 18 C-0.1583195 11.92972642 -0.20852314 6.40629424 0 0 Z " fill="#C28883" transform="translate(674,590)"/>
<path d="M0 0 C2.22825644 2.22825644 2.69239369 3.65761628 3.625 6.625 C3.88539063 7.44226563 4.14578125 8.25953125 4.4140625 9.1015625 C4.60742188 9.72804688 4.80078125 10.35453125 5 11 C2.36 11 -0.28 11 -3 11 C-2.69217504 9.35328588 -2.37860766 7.70764424 -2.0625 6.0625 C-1.88847656 5.14597656 -1.71445312 4.22945312 -1.53515625 3.28515625 C-1 1 -1 1 0 0 Z " fill="#F1EDEC" transform="translate(669,589)"/>
<path d="M0 0 C0.62109375 1.859375 0.62109375 1.859375 1 4 C-0.9375 6.25 -0.9375 6.25 -3 8 C-2.34 9.65 -1.68 11.3 -1 13 C-3.375 13.1875 -3.375 13.1875 -6 13 C-8 10 -8 10 -7.84765625 8.015625 C-6.79964732 5.52358532 -5.53888041 4.43110433 -3.4375 2.75 C-2.79683594 2.22921875 -2.15617188 1.7084375 -1.49609375 1.171875 C-1.00238281 0.78515625 -0.50867188 0.3984375 0 0 Z " fill="#5C1A17" transform="translate(657,547)"/>
<path d="M0 0 C0.99386719 0.00902344 1.98773437 0.01804687 3.01171875 0.02734375 C4.15060547 0.04474609 4.15060547 0.04474609 5.3125 0.0625 C5.3125 0.3925 5.3125 0.7225 5.3125 1.0625 C4.38566406 1.11148437 3.45882812 1.16046875 2.50390625 1.2109375 C1.30636719 1.28570312 0.10882812 1.36046875 -1.125 1.4375 C-2.91744141 1.54191406 -2.91744141 1.54191406 -4.74609375 1.6484375 C-5.71675781 1.78507812 -6.68742188 1.92171875 -7.6875 2.0625 C-8.0175 2.7225 -8.3475 3.3825 -8.6875 4.0625 C-9.27144531 4.18882812 -9.85539063 4.31515625 -10.45703125 4.4453125 C-13.46108756 5.2765575 -15.07187728 6.85897933 -17.375 8.9375 C-18.55642578 9.98550781 -18.55642578 9.98550781 -19.76171875 11.0546875 C-21.90569858 13.00298236 -21.90569858 13.00298236 -22.6875 16.0625 C-23.3475 16.0625 -24.0075 16.0625 -24.6875 16.0625 C-23.24892539 10.78772644 -19.82856761 7.4286797 -15.6875 4.0625 C-10.64631184 1.2171668 -5.75346591 -0.06768783 0 0 Z " fill="#875752" transform="translate(590.6875,506.9375)"/>
<path d="M0 0 C3.3 0 6.6 0 10 0 C10 0.99 10 1.98 10 3 C6.7 3 3.4 3 0 3 C0 5.64 0 8.28 0 11 C3.3 11 6.6 11 10 11 C10 11.33 10 11.66 10 12 C6.37 12 2.74 12 -1 12 C-1.125 2.25 -1.125 2.25 0 0 Z " fill="#CA958E" transform="translate(770,594)"/>
<path d="M0 0 C1.32 0 2.64 0 4 0 C4 4.62 4 9.24 4 14 C3.01 14 2.02 14 1 14 C0.67 9.38 0.34 4.76 0 0 Z " fill="#BC7670" transform="translate(637,584)"/>
<path d="M0 0 C0.33 0 0.66 0 1 0 C2 4 3 8 4 12 C1.69 13.32 -0.62 14.64 -3 16 C-2.01 10.72 -1.02 5.44 0 0 Z " fill="#DEBAB2" transform="translate(638,413)"/>
<path d="M0 0 C3.25748651 3.16700077 6.27175362 6.36233816 9 10 C9 10.33 9 10.66 9 11 C6.70703125 11.25 6.70703125 11.25 4 11 C2.19921875 9.25 2.19921875 9.25 0.6875 7 C0.17574219 6.2575 -0.33601562 5.515 -0.86328125 4.75 C-1.23839844 4.1725 -1.61351562 3.595 -2 3 C-1.34 3 -0.68 3 0 3 C0 2.01 0 1.02 0 0 Z " fill="#C08580" transform="translate(740,597)"/>
<path d="M0 0 C0.66 0 1.32 0 2 0 C5 4.38461538 5 4.38461538 5 7 C0.05 7 -4.9 7 -10 7 C-10 6.67 -10 6.34 -10 6 C-9.36191406 5.81824219 -8.72382812 5.63648438 -8.06640625 5.44921875 C-7.24011719 5.19785156 -6.41382813 4.94648437 -5.5625 4.6875 C-4.32693359 4.32205078 -4.32693359 4.32205078 -3.06640625 3.94921875 C-2.38449219 3.63597656 -1.70257812 3.32273437 -1 3 C-0.67 2.01 -0.34 1.02 0 0 Z " fill="#703C36" transform="translate(661,554)"/>
<path d="M0 0 C2.6855594 2.6855594 3.06049974 5.37621328 4 9 C3.01 9.66 2.02 10.32 1 11 C0.67 10.01 0.34 9.02 0 8 C-0.33 12.62 -0.66 17.24 -1 22 C-1.33 22 -1.66 22 -2 22 C-2.05416741 19.27056463 -2.09375225 16.54221436 -2.125 13.8125 C-2.14175781 13.04357422 -2.15851562 12.27464844 -2.17578125 11.48242188 C-2.21266851 7.1850566 -1.9958504 3.92098169 0 0 Z " fill="#CB9E99" transform="translate(621,586)"/>
<path d="M0 0 C1.65 1.65 3.3 3.3 5 5 C4.67 5.66 4.34 6.32 4 7 C3.01 7.33 2.02 7.66 1 8 C0.34 12.62 -0.32 17.24 -1 22 C-3.12765957 17.74468085 -3.12765957 17.74468085 -2 14 C-1.97163997 11.47190614 -2.06388565 8.9636406 -2.16015625 6.4375 C-1.98737236 3.80781353 -1.32840718 2.25047805 0 0 Z " fill="#C4664B" transform="translate(599,237)"/>
<path d="M0 0 C0.66 0 1.32 0 2 0 C3.17661508 3.67692213 3.14475933 7.1638778 3 11 C2 12 2 12 -0.50390625 12.09765625 C-2.01791016 12.08025391 -2.01791016 12.08025391 -3.5625 12.0625 C-4.57441406 12.05347656 -5.58632813 12.04445313 -6.62890625 12.03515625 C-7.41136719 12.02355469 -8.19382812 12.01195312 -9 12 C-8.67 11.34 -8.34 10.68 -8 10 C-4.7 10 -1.4 10 2 10 C1.505 8.9171875 1.505 8.9171875 1 7.8125 C-0.00603529 4.98302573 -0.16977402 2.97104534 0 0 Z " fill="#BC7C74" transform="translate(672,590)"/>
<path d="M0 0 C3.39417765 3.12621626 5.6062718 5.56541027 7 10 C5.68 10 4.36 10 3 10 C0.6875 7.25 0.6875 7.25 -1 4 C-0.75 1.625 -0.75 1.625 0 0 Z " fill="#C0847D" transform="translate(567,598)"/>
<path d="M0 0 C2 3 2 3 2 8 C5.63 8 9.26 8 13 8 C13 8.66 13 9.32 13 10 C8.71 10 4.42 10 0 10 C0 6.7 0 3.4 0 0 Z " fill="#B56D65" transform="translate(526,598)"/>
<path d="M0 0 C3.85964591 0.32708864 5.74726506 0.8177552 8.6875 3.3125 C8.6875 4.6325 8.6875 5.9525 8.6875 7.3125 C5.54012818 6.61308404 2.66161124 5.55171302 -0.3125 4.3125 C0.6775 3.9825 1.6675 3.6525 2.6875 3.3125 C2.6875 2.6525 2.6875 1.9925 2.6875 1.3125 C0.0475 1.6425 -2.5925 1.9725 -5.3125 2.3125 C-3.3125 0.3125 -3.3125 0.3125 0 0 Z " fill="#C68B8A" transform="translate(426.3125,582.6875)"/>
<path d="M0 0 C0.99 0.99 1.98 1.98 3 3 C2.6875 6.1875 2.6875 6.1875 2 9 C4.97 9 7.94 9 11 9 C11 9.33 11 9.66 11 10 C6.71 10 2.42 10 -2 10 C-1.34 6.7 -0.68 3.4 0 0 Z " fill="#7C4643" transform="translate(790,551)"/>
<path d="M0 0 C0.556875 0.268125 1.11375 0.53625 1.6875 0.8125 C0.31766497 3.97365776 -0.3015638 4.8052092 -3.3125 6.8125 C-4.6325 6.8125 -5.9525 6.8125 -7.3125 6.8125 C-7.3125 7.4725 -7.3125 8.1325 -7.3125 8.8125 C-7.9725 8.8125 -8.6325 8.8125 -9.3125 8.8125 C-7.66495848 4.76853446 -4.80734346 -0.3897846 0 0 Z " fill="#F6F2F1" transform="translate(643.3125,425.1875)"/>
<path d="M0 0 C3.0625 2 3.0625 2 5 4 C4.67 4.66 4.34 5.32 4 6 C3.34 5.505 2.68 5.01 2 4.5 C-2.0227316 2.4886342 -4.52334771 2.71118372 -9 3 C-9.99 3.33 -10.98 3.66 -12 4 C-12.33 4.99 -12.66 5.98 -13 7 C-13.66 7 -14.32 7 -15 7 C-13.52633081 2.3333809 -13.52633081 2.3333809 -11.19921875 0.859375 C-7.49535531 -0.58796063 -3.90810987 -0.59803817 0 0 Z " fill="#E69578" transform="translate(615,230)"/>
<path d="M0 0 C-0.56371414 3.26954202 -1.49962266 4.82575883 -4 7 C-4.33 5.35 -4.66 3.7 -5 2 C-7.64 1.67 -10.28 1.34 -13 1 C-13 3.64 -13 6.28 -13 9 C-13.33 9 -13.66 9 -14 9 C-14 6.03 -14 3.06 -14 0 C-12.41773035 -0.19627391 -10.83410729 -0.38165538 -9.25 -0.5625 C-8.36828125 -0.66691406 -7.4865625 -0.77132812 -6.578125 -0.87890625 C-4.11567549 -0.99456676 -2.33461936 -0.73638695 0 0 Z " fill="#CD9993" transform="translate(574,586)"/>
<path d="M0 0 C5.57142857 5.14285714 5.57142857 5.14285714 6 9 C3.6875 8.8125 3.6875 8.8125 1 8 C-2 3.96551724 -2 3.96551724 -2 1 C-1.34 0.67 -0.68 0.34 0 0 Z " fill="#C0857E" transform="translate(708,599)"/>
<path d="M0 0 C2.50476945 4.74372663 3.51648316 8.77655801 2 14 C1.96213099 15.66623639 1.95372155 17.33397597 2 19 C2.99 19.33 3.98 19.66 5 20 C4.34 20.33 3.68 20.66 3 21 C2.01 20.34 1.02 19.68 0 19 C-0.34057617 17.02880859 -0.34057617 17.02880859 -0.29296875 14.6484375 C-0.28330078 13.79765625 -0.27363281 12.946875 -0.26367188 12.0703125 C-0.23853516 11.18085938 -0.21339844 10.29140625 -0.1875 9.375 C-0.17396484 8.4778125 -0.16042969 7.580625 -0.14648438 6.65625 C-0.11106925 4.43690211 -0.06168461 2.21874812 0 0 Z " fill="#C8694B" transform="translate(622,264)"/>
<path d="M0 0 C0.33 0 0.66 0 1 0 C1 1.65 1 3.3 1 5 C4.63 5 8.26 5 12 5 C12 5.66 12 6.32 12 7 C7.71 7 3.42 7 -1 7 C-1 1 -1 1 0 0 Z " fill="#B8716A" transform="translate(768,601)"/>
<path d="M0 0 C1.65 0 3.3 0 5 0 C6.4606285 2.64738916 7 3.89448334 7 7 C6.34 7 5.68 7 5 7 C4.67 8.32 4.34 9.64 4 11 C2.16308743 7.21812119 1.84162374 5.05431692 3 1 C2.01 0.67 1.02 0.34 0 0 Z " fill="#CA9891" transform="translate(667,583)"/>
<path d="M0 0 C1.9375 1.4375 1.9375 1.4375 2.6875 4.5625 C2.77 5.51125 2.8525 6.46 2.9375 7.4375 C1.6175 7.7675 0.2975 8.0975 -1.0625 8.4375 C-1.371875 7.48875 -1.68125 6.54 -2 5.5625 C-2.93644742 2.57669592 -2.93644742 2.57669592 -4.0625 0.4375 C-2.0625 -0.5625 -2.0625 -0.5625 0 0 Z " fill="#C27F79" transform="translate(712.0625,585.5625)"/>
<path d="M0 0 C3.3 1.65 6.6 3.3 10 5 C6.29847322 5.92538169 5.36541838 6.08174162 2 5 C2 5.66 2 6.32 2 7 C0.35 6.67 -1.3 6.34 -3 6 C-2.505 5.566875 -2.01 5.13375 -1.5 4.6875 C0.33218192 3.00259517 0.33218192 3.00259517 0 0 Z " fill="#ECDCD9" transform="translate(659,285)"/>
<path d="M0 0 C0.66 0 1.32 0 2 0 C1.45660208 4.56454251 0.20536179 7.9728176 -2 12 C-3.125 10.375 -3.125 10.375 -4 8 C-3.16933916 4.53891316 -2.52986895 2.52986895 0 0 Z " fill="#5C1A1A" transform="translate(400,542)"/>
<path d="M0 0 C0 2.31 0 4.62 0 7 C-0.99 7.33 -1.98 7.66 -3 8 C-3.66 7.67 -4.32 7.34 -5 7 C-5.1875 4.625 -5.1875 4.625 -5 2 C-2 0 -2 0 0 0 Z " fill="#531410" transform="translate(406,533)"/>
<path d="M0 0 C3.48670834 1.1094072 6.77484237 2.26337666 10 4 C10 4.66 10 5.32 10 6 C8.88625 5.505 8.88625 5.505 7.75 5 C4.86116688 3.77217129 4.86116688 3.77217129 1 4 C0.34 6.64 -0.32 9.28 -1 12 C-1.33 12 -1.66 12 -2 12 C-1.85962479 10.18706911 -1.71255111 8.3746557 -1.5625 6.5625 C-1.48128906 5.55316406 -1.40007813 4.54382813 -1.31640625 3.50390625 C-1 1 -1 1 0 0 Z " fill="#E2957C" transform="translate(562,238)"/>
<path d="M0 0 C0.99 0 1.98 0 3 0 C3.125 2.875 3.125 2.875 3 6 C0.60236815 8.39763185 -0.33273498 8.34280586 -3.625 8.625 C-4.44226563 8.69976563 -5.25953125 8.77453125 -6.1015625 8.8515625 C-6.72804688 8.90054688 -7.35453125 8.94953125 -8 9 C-5.66785852 7.79371992 -3.50357861 6.8345262 -1 6 C-0.67 4.02 -0.34 2.04 0 0 Z " fill="#BC7E7A" transform="translate(433,598)"/>
<path d="M0 0 C2.31 0 4.62 0 7 0 C6.02933594 0.33837891 6.02933594 0.33837891 5.0390625 0.68359375 C2.75324964 1.82349143 2.75324964 1.82349143 2.4609375 4.34765625 C2.43257813 5.24355469 2.40421875 6.13945313 2.375 7.0625 C2.2734375 9.78515625 2.2734375 9.78515625 2 12 C1.01 12.495 1.01 12.495 0 13 C0 8.71 0 4.42 0 0 Z " fill="#B86A63" transform="translate(492,584)"/>
<path d="M0 0 C3.96 0 7.92 0 12 0 C12 0.66 12 1.32 12 2 C8.7 2 5.4 2 2 2 C1.67 3.32 1.34 4.64 1 6 C0.67 6 0.34 6 0 6 C0 4.02 0 2.04 0 0 Z " fill="#C37C75" transform="translate(558,584)"/>
<path d="M0 0 C3.46101743 3.00336223 4.69352564 5.31280768 5.75 9.75 C5.99234375 10.73484375 6.2346875 11.7196875 6.484375 12.734375 C6.73960937 13.85585938 6.73960937 13.85585938 7 15 C6.34 14.67 5.68 14.34 5 14 C5 13.34 5 12.68 5 12 C4.01 12.33 3.02 12.66 2 13 C2.33 10.36 2.66 7.72 3 5 C2.01 5 1.02 5 0 5 C0 3.35 0 1.7 0 0 Z " fill="#6F3933" transform="translate(825,523)"/>
<path d="M0 0 C2.97 0.495 2.97 0.495 6 1 C6 1.66 6 2.32 6 3 C6.66 3.33 7.32 3.66 8 4 C7.67 4.66 7.34 5.32 7 6 C4.03 5.505 4.03 5.505 1 5 C0.67 3.35 0.34 1.7 0 0 Z " fill="#F7F4F1" transform="translate(653,284)"/>
<path d="M0 0 C0.99 0.495 0.99 0.495 2 1 C6.65275976 1.3052622 6.65275976 1.3052622 11 0 C11 0.99 11 1.98 11 3 C11.66 3.33 12.32 3.66 13 4 C11.02 4.99 11.02 4.99 9 6 C9 5.34 9 4.68 9 4 C6.69 4 4.38 4 2 4 C1.34 2.68 0.68 1.36 0 0 Z " fill="#D09B95" transform="translate(458,602)"/>
<path d="M0 0 C0.33 0 0.66 0 1 0 C1 1.65 1 3.3 1 5 C1.66 5 2.32 5 3 5 C3 5.66 3 6.32 3 7 C1.02 7.99 1.02 7.99 -1 9 C-1 9.99 -1 10.98 -1 12 C-1.99 12.33 -2.98 12.66 -4 13 C-2.93204565 8.49933525 -1.85961414 4.2505466 0 0 Z " fill="#6F3833" transform="translate(400,535)"/>
<path d="M0 0 C0.99 0 1.98 0 3 0 C4.46726798 3.81489674 3.43336419 6.29011622 2 10 C1.34 9.67 0.68 9.34 0 9 C0 6.03 0 3.06 0 0 Z " fill="#BC7A73" transform="translate(617,584)"/>
<path d="M0 0 C0.33 0 0.66 0 1 0 C1.33 3.63 1.66 7.26 2 11 C0.68 11.33 -0.64 11.66 -2 12 C-1 3.42857143 -1 3.42857143 0 0 Z " fill="#D7B2A9" transform="translate(661,315)"/>
<path d="M0 0 C-0.99 0.33 -1.98 0.66 -3 1 C-3.33 1.99 -3.66 2.98 -4 4 C-6.64 4 -9.28 4 -12 4 C-5.5 -1.30263158 -5.5 -1.30263158 0 0 Z " fill="#B06653" transform="translate(585,232)"/>
<path d="M0 0 C0.99 0.495 0.99 0.495 2 1 C2.73075648 3.3140622 3.40138258 5.64828869 4 8 C3.01 8.495 3.01 8.495 2 9 C1.34 10.32 0.68 11.64 0 13 C0 8.71 0 4.42 0 0 Z " fill="#EEEAEA" transform="translate(620,593)"/>
<path d="M0 0 C1.98 0.99 3.96 1.98 6 3 C4.68 3.33 3.36 3.66 2 4 C2 4.66 2 5.32 2 6 C-0.97 5.505 -0.97 5.505 -4 5 C-2 2 -2 2 0 0 Z " fill="#F0DEDB" transform="translate(624,284)"/>
<path d="M0 0 C0.99 0.33 1.98 0.66 3 1 C2.34 6.28 1.68 11.56 1 17 C0.67 17 0.34 17 0 17 C0 11.39 0 5.78 0 0 Z " fill="#BE6547" transform="translate(632,258)"/>
<path d="M0 0 C0.66 0 1.32 0 2 0 C2 4.95 2 9.9 2 15 C1.67 15 1.34 15 1 15 C0.67 12.03 0.34 9.06 0 6 C-0.66 6 -1.32 6 -2 6 C-1.34 4.02 -0.68 2.04 0 0 Z " fill="#E4D1CF" transform="translate(636,593)"/>
<path d="M0 0 C0.66 0 1.32 0 2 0 C1.91291331 1.45945288 1.80473093 2.91765868 1.6875 4.375 C1.62949219 5.18710937 1.57148437 5.99921875 1.51171875 6.8359375 C1 9 1 9 -2 11 C-2.28571429 3.57142857 -2.28571429 3.57142857 0 0 Z " fill="#742A22" transform="translate(632,396)"/>
<path d="M0 0 C2.97 0.99 5.94 1.98 9 3 C9 3.33 9 3.66 9 4 C8.2575 3.979375 7.515 3.95875 6.75 3.9375 C4.06404644 3.86733711 4.06404644 3.86733711 1.875 4.6875 C1.25625 4.790625 0.6375 4.89375 0 5 C-1.75 3.5625 -1.75 3.5625 -3 2 C-2.01 2 -1.02 2 0 2 C0 1.34 0 0.68 0 0 Z " fill="#CC958F" transform="translate(423,592)"/>
<path d="M0 0 C2 2 2 2 2 6 C-2.62 6 -7.24 6 -12 6 C-12 5.67 -12 5.34 -12 5 C-11.30132813 4.97421875 -10.60265625 4.9484375 -9.8828125 4.921875 C-8.97273437 4.86515625 -8.06265625 4.8084375 -7.125 4.75 C-6.22007812 4.70359375 -5.31515625 4.6571875 -4.3828125 4.609375 C-1.82889456 4.24388852 -1.82889456 4.24388852 -0.6796875 1.953125 C-0.34324219 0.98632812 -0.34324219 0.98632812 0 0 Z " fill="#6F332F" transform="translate(612,519)"/>
<path d="M0 0 C1.49341969 2.98683937 0.40648676 4.95160978 -0.4375 8.125 C-0.72496094 9.22070312 -1.01242187 10.31640625 -1.30859375 11.4453125 C-1.53675781 12.28835938 -1.76492188 13.13140625 -2 14 C-4.56687367 10.1496895 -3.83288724 8.41430237 -3 4 C-2.34 4 -1.68 4 -1 4 C-0.67 2.68 -0.34 1.36 0 0 Z " fill="#BA6A51" transform="translate(557,302)"/>
<path d="M0 0 C1 3 1 3 0.3125 5.625 C-1 8 -1 8 -3.125 8.8125 C-3.74375 8.874375 -4.3625 8.93625 -5 9 C-5 8.01 -5 7.02 -5 6 C-4.01 6 -3.02 6 -2 6 C-1.855625 5.195625 -1.71125 4.39125 -1.5625 3.5625 C-1 1 -1 1 0 0 Z " fill="#BA837D" transform="translate(632,599)"/>
<path d="M0 0 C3 1 3 1 5 2 C5 2.99 5 3.98 5 5 C3.35 5.33 1.7 5.66 0 6 C0 4.02 0 2.04 0 0 Z " fill="#4F110E" transform="translate(465,515)"/>
<path d="M0 0 C0.99 0.33 1.98 0.66 3 1 C0.03 3.64 -2.94 6.28 -6 9 C-6.33 8.01 -6.66 7.02 -7 6 C-5.68 5.34 -4.36 4.68 -3 4 C-3 3.34 -3 2.68 -3 2 C-2.01 1.34 -1.02 0.68 0 0 Z " fill="#AC5D59" transform="translate(517,367)"/>
<path d="M0 0 C0.66 0.33 1.32 0.66 2 1 C1.71517632 2.41805831 1.42181856 3.83440379 1.125 5.25 C0.88136719 6.43335938 0.88136719 6.43335938 0.6328125 7.640625 C0.00849925 9.96831144 -0.84838542 11.89031952 -2 14 C-3.25127906 10.45332822 -2.72285053 8.27746562 -1.5625 4.75 C-1.27503906 3.85796875 -0.98757813 2.9659375 -0.69140625 2.046875 C-0.46324219 1.37140625 -0.23507812 0.6959375 0 0 Z " fill="#DA9076" transform="translate(557,258)"/>
<path d="M0 0 C0.99 0.33 1.98 0.66 3 1 C3.6875 3.0625 3.6875 3.0625 4 5 C2.02 5 0.04 5 -2 5 C-1.34 3.35 -0.68 1.7 0 0 Z " fill="#581A13" transform="translate(836,555)"/>
<path d="M0 0 C-1.1875 1.5 -1.1875 1.5 -3 3 C-5.6875 3.1875 -5.6875 3.1875 -8 3 C-8 2.01 -8 1.02 -8 0 C-4.71303767 -0.79953138 -3.28976808 -1.09658936 0 0 Z " fill="#6C2E29" transform="translate(631,432)"/>
<path d="M0 0 C-1.485 1.485 -1.485 1.485 -3 3 C-3.33 2.67 -3.66 2.34 -4 2 C-6.32817964 1.63239269 -8.6618385 1.29758419 -11 1 C-7.2297564 -1.56376565 -4.32597804 -0.83191885 0 0 Z " fill="#C17A75" transform="translate(506,585)"/>
<path d="M0 0 C2.31 0 4.62 0 7 0 C7 0.66 7 1.32 7 2 C6.360625 2.12375 5.72125 2.2475 5.0625 2.375 C4.381875 2.58125 3.70125 2.7875 3 3 C2.67 3.66 2.34 4.32 2 5 C1.34 3.35 0.68 1.7 0 0 Z " fill="#591812" transform="translate(511,509)"/>
<path d="M0 0 C-0.33 0.66 -0.66 1.32 -1 2 C-4.375 2.125 -4.375 2.125 -8 2 C-8.66 1.34 -9.32 0.68 -10 0 C-3.375 -1.125 -3.375 -1.125 0 0 Z " fill="#BE7873" transform="translate(468,606)"/>
<path d="M0 0 C1.35432675 1.31200404 2.68733482 2.64631404 4 4 C4 4.33 4 4.66 4 5 C1.625 5.1875 1.625 5.1875 -1 5 C-1.66 4.01 -2.32 3.02 -3 2 C-2.01 2 -1.02 2 0 2 C0 1.34 0 0.68 0 0 Z " fill="#C48D89" transform="translate(745,603)"/>
<path d="M0 0 C1.61949011 2.57213134 2.04408751 3.67669159 1.625 6.75 C1.41875 7.4925 1.2125 8.235 1 9 C0.34 8.67 -0.32 8.34 -1 8 C-1.04241723 5.66705225 -1.04092937 3.33297433 -1 1 C-0.67 0.67 -0.34 0.34 0 0 Z " fill="#51170F" transform="translate(437,545)"/>
<path d="M0 0 C0.33 1.32 0.66 2.64 1 4 C-0.65 5.32 -2.3 6.64 -4 8 C-4.33 7.34 -4.66 6.68 -5 6 C-2.59016393 1.29508197 -2.59016393 1.29508197 0 0 Z " fill="#59130F" transform="translate(657,547)"/>
<path d="M0 0 C0.33 0 0.66 0 1 0 C1.33 2.64 1.66 5.28 2 8 C1.01 8.495 1.01 8.495 0 9 C-0.66 9.99 -1.32 10.98 -2 12 C-1 3.42857143 -1 3.42857143 0 0 Z " fill="#C89E94" transform="translate(638,413)"/>
<path d="M0 0 C3.465 1.485 3.465 1.485 7 3 C4.8614515 5.1385485 3.86724686 5.42655063 1 6 C0.67 4.02 0.34 2.04 0 0 Z " fill="#9B4540" transform="translate(687,352)"/>
<path d="M0 0 C0.66 0.33 1.32 0.66 2 1 C2 2.98 2 4.96 2 7 C0.68 7 -0.64 7 -2 7 C-1.34 4.69 -0.68 2.38 0 0 Z " fill="#672925" transform="translate(395,549)"/>
<path d="M0 0 C1.32 0 2.64 0 4 0 C3.02391783 2.92824652 1.89213369 4.61426621 0 7 C-1.125 2.25 -1.125 2.25 0 0 Z " fill="#733935" transform="translate(415,522)"/>
<path d="M0 0 C1.18082522 3.69007882 1.28527337 7.14880946 1 11 C0.01 11.66 -0.98 12.32 -2 13 C-1.85851011 11.3954444 -1.71164314 9.79136233 -1.5625 8.1875 C-1.48128906 7.29417969 -1.40007813 6.40085937 -1.31640625 5.48046875 C-1 3 -1 3 0 0 Z " fill="#E2C1B7" transform="translate(550,331)"/>
<path d="M0 0 C1.04478472 3.39555034 1.30152754 6.45705143 1 10 C-0.515625 11.68359375 -0.515625 11.68359375 -2 13 C-1.85851011 11.3954444 -1.71164314 9.79136233 -1.5625 8.1875 C-1.48128906 7.29417969 -1.40007813 6.40085937 -1.31640625 5.48046875 C-1 3 -1 3 0 0 Z " fill="#AA6B5F" transform="translate(637,369)"/>
</svg>
